<svg width="30" height="30" viewBox="0 0 30 30" fill="none" xmlns="http://www.w3.org/2000/svg">
<path d="M5.44567 25.3845C7.13499 26.9808 9.18884 28.1353 11.4253 28.7457C13.6618 29.3561 16.0118 29.4036 18.2673 28.884C20.5227 28.3643 22.614 27.2936 24.3558 25.7667C26.0976 24.2397 27.4362 22.3037 28.253 20.13C29.0698 17.9563 29.3396 15.6121 29.0385 13.305C28.7375 10.998 27.8748 8.79924 26.5269 6.90361C25.1791 5.00798 23.3876 3.47396 21.3113 2.43744C19.2349 1.40091 16.9378 0.893877 14.6233 0.961243L15.0768 15.0984L5.44567 25.3845Z" fill="#C9DCF8"/>
<path d="M10.0477 12.75V11.71H12.1277V19H10.9777V12.75H10.0477ZM17.5438 9.56L14.8238 20.75H13.7038L16.4138 9.56H17.5438ZM19.4605 17.45C20.1005 16.8967 20.6038 16.4433 20.9705 16.09C21.3438 15.73 21.6538 15.3567 21.9005 14.97C22.1471 14.5833 22.2705 14.1967 22.2705 13.81C22.2705 13.41 22.1738 13.0967 21.9805 12.87C21.7938 12.6433 21.4971 12.53 21.0905 12.53C20.6971 12.53 20.3905 12.6567 20.1705 12.91C19.9571 13.1567 19.8438 13.49 19.8305 13.91H18.7305C18.7505 13.15 18.9771 12.57 19.4105 12.17C19.8505 11.7633 20.4071 11.56 21.0805 11.56C21.8071 11.56 22.3738 11.76 22.7805 12.16C23.1938 12.56 23.4005 13.0933 23.4005 13.76C23.4005 14.24 23.2771 14.7033 23.0305 15.15C22.7905 15.59 22.5005 15.9867 22.1605 16.34C21.8271 16.6867 21.4005 17.09 20.8805 17.55L20.4305 17.95H23.6005V18.9H18.7405V18.07L19.4605 17.45Z" fill="#676A7B"/>
<circle cx="15.5" cy="15.5" r="13.5" stroke="#C9DCF8" stroke-width="2"/>
</svg>
