<svg width="20" height="20" viewBox="0 0 20 20" fill="none" xmlns="http://www.w3.org/2000/svg">
<g clip-path="url(#clip0_468_7440)">
<path d="M14.0002 5.5H13.5002V5C13.5002 4.725 13.2752 4.5 13.0002 4.5C12.7252 4.5 12.5002 4.725 12.5002 5V5.5H7.50024V5C7.50024 4.725 7.27524 4.5 7.00024 4.5C6.72524 4.5 6.50024 4.725 6.50024 5V5.5H6.00024C5.45024 5.5 5.00024 5.95 5.00024 6.5V14.5C5.00024 15.05 5.45024 15.5 6.00024 15.5H14.0002C14.5502 15.5 15.0002 15.05 15.0002 14.5V6.5C15.0002 5.95 14.5502 5.5 14.0002 5.5ZM13.5002 14.5H6.50024C6.22524 14.5 6.00024 14.275 6.00024 14V8H14.0002V14C14.0002 14.275 13.7752 14.5 13.5002 14.5Z" fill="#A3AED0"/>
</g>
<circle cx="10" cy="10" r="9.5" stroke="#A3AED0" stroke-dasharray="2 2"/>
<defs>
<clipPath id="clip0_468_7440">
<rect width="12" height="12" fill="white" transform="translate(4 4)"/>
</clipPath>
</defs>
</svg>
