<svg width="105" height="21" viewBox="0 0 105 21" fill="none" xmlns="http://www.w3.org/2000/svg">
<path d="M0.518 12.114C0.518 11.162 0.737333 10.308 1.176 9.552C1.624 8.796 2.226 8.208 2.982 7.788C3.74733 7.35867 4.58267 7.144 5.488 7.144C6.524 7.144 7.44333 7.40067 8.246 7.914C9.058 8.418 9.646 9.13667 10.01 10.07H8.092C7.84 9.55667 7.49 9.174 7.042 8.922C6.594 8.67 6.076 8.544 5.488 8.544C4.844 8.544 4.27 8.68867 3.766 8.978C3.262 9.26733 2.86533 9.68267 2.576 10.224C2.296 10.7653 2.156 11.3953 2.156 12.114C2.156 12.8327 2.296 13.4627 2.576 14.004C2.86533 14.5453 3.262 14.9653 3.766 15.264C4.27 15.5533 4.844 15.698 5.488 15.698C6.076 15.698 6.594 15.572 7.042 15.32C7.49 15.068 7.84 14.6853 8.092 14.172H10.01C9.646 15.1053 9.058 15.824 8.246 16.328C7.44333 16.832 6.524 17.084 5.488 17.084C4.57333 17.084 3.738 16.874 2.982 16.454C2.226 16.0247 1.624 15.432 1.176 14.676C0.737333 13.92 0.518 13.066 0.518 12.114ZM15.2241 17.126C14.4961 17.126 13.8381 16.9627 13.2501 16.636C12.6621 16.3 12.2001 15.8333 11.8641 15.236C11.5281 14.6293 11.3601 13.9293 11.3601 13.136C11.3601 12.352 11.5328 11.6567 11.8781 11.05C12.2235 10.4433 12.6948 9.97667 13.2921 9.65C13.8895 9.32333 14.5568 9.16 15.2941 9.16C16.0315 9.16 16.6988 9.32333 17.2961 9.65C17.8935 9.97667 18.3648 10.4433 18.7101 11.05C19.0555 11.6567 19.2281 12.352 19.2281 13.136C19.2281 13.92 19.0508 14.6153 18.6961 15.222C18.3415 15.8287 17.8561 16.3 17.2401 16.636C16.6335 16.9627 15.9615 17.126 15.2241 17.126ZM15.2241 15.74C15.6348 15.74 16.0175 15.642 16.3721 15.446C16.7361 15.25 17.0301 14.956 17.2541 14.564C17.4781 14.172 17.5901 13.696 17.5901 13.136C17.5901 12.576 17.4828 12.1047 17.2681 11.722C17.0535 11.33 16.7688 11.036 16.4141 10.84C16.0595 10.644 15.6768 10.546 15.2661 10.546C14.8555 10.546 14.4728 10.644 14.1181 10.84C13.7728 11.036 13.4975 11.33 13.2921 11.722C13.0868 12.1047 12.9841 12.576 12.9841 13.136C12.9841 13.9667 13.1941 14.6107 13.6141 15.068C14.0435 15.516 14.5801 15.74 15.2241 15.74ZM30.1439 9.16C30.7505 9.16 31.2919 9.286 31.7679 9.538C32.2532 9.79 32.6312 10.1633 32.9019 10.658C33.1819 11.1527 33.3219 11.75 33.3219 12.45V17H31.7399V12.688C31.7399 11.9973 31.5672 11.47 31.2219 11.106C30.8765 10.7327 30.4052 10.546 29.8079 10.546C29.2105 10.546 28.7345 10.7327 28.3799 11.106C28.0345 11.47 27.8619 11.9973 27.8619 12.688V17H26.2799V12.688C26.2799 11.9973 26.1072 11.47 25.7619 11.106C25.4165 10.7327 24.9452 10.546 24.3479 10.546C23.7505 10.546 23.2745 10.7327 22.9199 11.106C22.5745 11.47 22.4019 11.9973 22.4019 12.688V17H20.8059V9.286H22.4019V10.168C22.6632 9.85067 22.9945 9.60333 23.3959 9.426C23.7972 9.24867 24.2265 9.16 24.6839 9.16C25.2999 9.16 25.8505 9.29067 26.3359 9.552C26.8212 9.81333 27.1945 10.1913 27.4559 10.686C27.6892 10.2193 28.0532 9.85067 28.5479 9.58C29.0425 9.3 29.5745 9.16 30.1439 9.16ZM36.9487 10.42C37.2194 10.0653 37.5881 9.76667 38.0547 9.524C38.5214 9.28133 39.0487 9.16 39.6367 9.16C40.3087 9.16 40.9201 9.328 41.4707 9.664C42.0307 9.99067 42.4694 10.4527 42.7867 11.05C43.1041 11.6473 43.2627 12.3333 43.2627 13.108C43.2627 13.8827 43.1041 14.578 42.7867 15.194C42.4694 15.8007 42.0307 16.2767 41.4707 16.622C40.9201 16.958 40.3087 17.126 39.6367 17.126C39.0487 17.126 38.5261 17.0093 38.0687 16.776C37.6114 16.5333 37.2381 16.2347 36.9487 15.88V20.668H35.3527V9.286H36.9487V10.42ZM41.6387 13.108C41.6387 12.576 41.5267 12.1187 41.3027 11.736C41.0881 11.344 40.7987 11.05 40.4347 10.854C40.0801 10.6487 39.6974 10.546 39.2867 10.546C38.8854 10.546 38.5027 10.6487 38.1387 10.854C37.7841 11.0593 37.4947 11.358 37.2707 11.75C37.0561 12.142 36.9487 12.604 36.9487 13.136C36.9487 13.668 37.0561 14.1347 37.2707 14.536C37.4947 14.928 37.7841 15.2267 38.1387 15.432C38.5027 15.6373 38.8854 15.74 39.2867 15.74C39.6974 15.74 40.0801 15.6373 40.4347 15.432C40.7987 15.2173 41.0881 14.9093 41.3027 14.508C41.5267 14.1067 41.6387 13.64 41.6387 13.108ZM46.437 6.64V17H44.841V6.64H46.437ZM55.6024 12.954C55.6024 13.2433 55.5838 13.5047 55.5464 13.738H49.6524C49.6991 14.354 49.9278 14.8487 50.3384 15.222C50.7491 15.5953 51.2531 15.782 51.8504 15.782C52.7091 15.782 53.3158 15.4227 53.6704 14.704H55.3924C55.1591 15.4133 54.7344 15.9967 54.1184 16.454C53.5118 16.902 52.7558 17.126 51.8504 17.126C51.1131 17.126 50.4504 16.9627 49.8624 16.636C49.2838 16.3 48.8264 15.8333 48.4904 15.236C48.1638 14.6293 48.0004 13.9293 48.0004 13.136C48.0004 12.3427 48.1591 11.6473 48.4764 11.05C48.8031 10.4433 49.2558 9.97667 49.8344 9.65C50.4224 9.32333 51.0944 9.16 51.8504 9.16C52.5784 9.16 53.2271 9.31867 53.7964 9.636C54.3658 9.95333 54.8091 10.4013 55.1264 10.98C55.4438 11.5493 55.6024 12.2073 55.6024 12.954ZM53.9364 12.45C53.9271 11.862 53.7171 11.3907 53.3064 11.036C52.8958 10.6813 52.3871 10.504 51.7804 10.504C51.2298 10.504 50.7584 10.6813 50.3664 11.036C49.9744 11.3813 49.7411 11.8527 49.6664 12.45H53.9364ZM59.035 10.588V14.858C59.035 15.1473 59.1004 15.3573 59.231 15.488C59.371 15.6093 59.6044 15.67 59.931 15.67H60.911V17H59.651C58.9324 17 58.3817 16.832 57.999 16.496C57.6164 16.16 57.425 15.614 57.425 14.858V10.588H56.515V9.286H57.425V7.368H59.035V9.286H60.911V10.588H59.035ZM69.452 12.954C69.452 13.2433 69.4334 13.5047 69.396 13.738H63.502C63.5487 14.354 63.7774 14.8487 64.188 15.222C64.5987 15.5953 65.1027 15.782 65.7 15.782C66.5587 15.782 67.1654 15.4227 67.52 14.704H69.242C69.0087 15.4133 68.584 15.9967 67.968 16.454C67.3614 16.902 66.6054 17.126 65.7 17.126C64.9627 17.126 64.3 16.9627 63.712 16.636C63.1334 16.3 62.676 15.8333 62.34 15.236C62.0134 14.6293 61.85 13.9293 61.85 13.136C61.85 12.3427 62.0087 11.6473 62.326 11.05C62.6527 10.4433 63.1054 9.97667 63.684 9.65C64.272 9.32333 64.944 9.16 65.7 9.16C66.428 9.16 67.0767 9.31867 67.646 9.636C68.2154 9.95333 68.6587 10.4013 68.976 10.98C69.2934 11.5493 69.452 12.2073 69.452 12.954ZM67.786 12.45C67.7767 11.862 67.5667 11.3907 67.156 11.036C66.7454 10.6813 66.2367 10.504 65.63 10.504C65.0794 10.504 64.608 10.6813 64.216 11.036C63.824 11.3813 63.5907 11.8527 63.516 12.45H67.786ZM70.4907 13.108C70.4907 12.3333 70.6493 11.6473 70.9667 11.05C71.2933 10.4527 71.732 9.99067 72.2827 9.664C72.8427 9.328 73.4633 9.16 74.1447 9.16C74.6487 9.16 75.1433 9.272 75.6287 9.496C76.1233 9.71067 76.5153 10 76.8047 10.364V6.64H78.4147V17H76.8047V15.838C76.5433 16.2113 76.1793 16.5193 75.7127 16.762C75.2553 17.0047 74.728 17.126 74.1307 17.126C73.4587 17.126 72.8427 16.958 72.2827 16.622C71.732 16.2767 71.2933 15.8007 70.9667 15.194C70.6493 14.578 70.4907 13.8827 70.4907 13.108ZM76.8047 13.136C76.8047 12.604 76.6927 12.142 76.4687 11.75C76.254 11.358 75.9693 11.0593 75.6147 10.854C75.26 10.6487 74.8773 10.546 74.4667 10.546C74.056 10.546 73.6733 10.6487 73.3187 10.854C72.964 11.05 72.6747 11.344 72.4507 11.736C72.236 12.1187 72.1287 12.576 72.1287 13.108C72.1287 13.64 72.236 14.1067 72.4507 14.508C72.6747 14.9093 72.964 15.2173 73.3187 15.432C73.6827 15.6373 74.0653 15.74 74.4667 15.74C74.8773 15.74 75.26 15.6373 75.6147 15.432C75.9693 15.2267 76.254 14.928 76.4687 14.536C76.6927 14.1347 76.8047 13.668 76.8047 13.136Z" fill="#A3AED0"/>
<path fill-rule="evenodd" clip-rule="evenodd" d="M95 3.9687C93.2006 1.87168 90.1938 1.2236 87.9392 3.14384C85.6847 5.06408 85.3673 8.27463 87.1378 10.5457C88.6098 12.434 93.0648 16.4164 94.5249 17.7054C94.6882 17.8496 94.7699 17.9217 94.8652 17.95C94.9483 17.9747 95.0393 17.9747 95.1225 17.95C95.2178 17.9217 95.2994 17.8496 95.4628 17.7054C96.9229 16.4164 101.378 12.434 102.85 10.5457C104.62 8.27463 104.342 5.04388 102.048 3.14384C99.7551 1.2438 96.7994 1.87168 95 3.9687Z" stroke="#A3AED0" stroke-width="2" stroke-linecap="round" stroke-linejoin="round"/>
</svg>
