<svg width="32" height="32" viewBox="0 0 32 32" fill="none" xmlns="http://www.w3.org/2000/svg">
<circle cx="15.5059" cy="15.5059" r="15.5059" fill="#CC5F5F"/>
<path d="M10.5648 19.5811V12.5811H11.8448L15.1348 17.5111V12.5811H16.4148V19.5811H15.1348L11.8448 14.6611V19.5811H10.5648ZM19.9618 19.7011C19.4485 19.7011 18.9951 19.6144 18.6018 19.4411C18.2085 19.2611 17.8985 19.0077 17.6718 18.6811C17.4451 18.3477 17.3285 17.9444 17.3218 17.4711H18.6718C18.6851 17.7977 18.8018 18.0744 19.0218 18.3011C19.2485 18.5211 19.5585 18.6311 19.9518 18.6311C20.2918 18.6311 20.5618 18.5511 20.7618 18.3911C20.9618 18.2244 21.0618 18.0044 21.0618 17.7311C21.0618 17.4444 20.9718 17.2211 20.7918 17.0611C20.6185 16.9011 20.3851 16.7711 20.0918 16.6711C19.7985 16.5711 19.4851 16.4644 19.1518 16.3511C18.6118 16.1644 18.1985 15.9244 17.9118 15.6311C17.6318 15.3377 17.4918 14.9477 17.4918 14.4611C17.4851 14.0477 17.5818 13.6944 17.7818 13.4011C17.9885 13.1011 18.2685 12.8711 18.6218 12.7111C18.9751 12.5444 19.3818 12.4611 19.8418 12.4611C20.3085 12.4611 20.7185 12.5444 21.0718 12.7111C21.4318 12.8777 21.7118 13.1111 21.9118 13.4111C22.1185 13.7111 22.2285 14.0677 22.2418 14.4811H20.8718C20.8651 14.2344 20.7685 14.0177 20.5818 13.8311C20.4018 13.6377 20.1485 13.5411 19.8218 13.5411C19.5418 13.5344 19.3051 13.6044 19.1118 13.7511C18.9251 13.8911 18.8318 14.0977 18.8318 14.3711C18.8318 14.6044 18.9051 14.7911 19.0518 14.9311C19.1985 15.0644 19.3985 15.1777 19.6518 15.2711C19.9051 15.3644 20.1951 15.4644 20.5218 15.5711C20.8685 15.6911 21.1851 15.8311 21.4718 15.9911C21.7585 16.1511 21.9885 16.3644 22.1618 16.6311C22.3351 16.8911 22.4218 17.2277 22.4218 17.6411C22.4218 18.0077 22.3285 18.3477 22.1418 18.6611C21.9551 18.9744 21.6785 19.2277 21.3118 19.4211C20.9451 19.6077 20.4951 19.7011 19.9618 19.7011Z" fill="white"/>
</svg>
