<svg width="56" height="21" viewBox="0 0 56 21" fill="none" xmlns="http://www.w3.org/2000/svg">
<rect width="56" height="21" rx="7" fill="#5570F1" fill-opacity="0.17"/>
<path d="M13.61 9.12C13.61 9.47333 13.5267 9.80667 13.36 10.12C13.1933 10.4333 12.9267 10.69 12.56 10.89C12.1933 11.0833 11.7233 11.18 11.15 11.18H9.89V14H8.75V7.05H11.15C11.6833 7.05 12.1333 7.14333 12.5 7.33C12.8733 7.51 13.15 7.75667 13.33 8.07C13.5167 8.38333 13.61 8.73333 13.61 9.12ZM11.15 10.25C11.5833 10.25 11.9067 10.1533 12.12 9.96C12.3333 9.76 12.44 9.48 12.44 9.12C12.44 8.36 12.01 7.98 11.15 7.98H9.89V10.25H11.15ZM15.8373 9.29C16.0039 9.01 16.2239 8.79333 16.4973 8.64C16.7773 8.48 17.1073 8.4 17.4873 8.4V9.58H17.1973C16.7506 9.58 16.4106 9.69333 16.1773 9.92C15.9506 10.1467 15.8373 10.54 15.8373 11.1V14H14.6973V8.49H15.8373V9.29ZM23.5852 11.11C23.5852 11.3167 23.5718 11.5033 23.5452 11.67H19.3352C19.3685 12.11 19.5318 12.4633 19.8252 12.73C20.1185 12.9967 20.4785 13.13 20.9052 13.13C21.5185 13.13 21.9518 12.8733 22.2052 12.36H23.4352C23.2685 12.8667 22.9652 13.2833 22.5252 13.61C22.0918 13.93 21.5518 14.09 20.9052 14.09C20.3785 14.09 19.9052 13.9733 19.4852 13.74C19.0718 13.5 18.7452 13.1667 18.5052 12.74C18.2718 12.3067 18.1552 11.8067 18.1552 11.24C18.1552 10.6733 18.2685 10.1767 18.4952 9.75C18.7285 9.31667 19.0518 8.98333 19.4652 8.75C19.8852 8.51667 20.3652 8.4 20.9052 8.4C21.4252 8.4 21.8885 8.51333 22.2952 8.74C22.7018 8.96667 23.0185 9.28667 23.2452 9.7C23.4718 10.1067 23.5852 10.5767 23.5852 11.11ZM22.3952 10.75C22.3885 10.33 22.2385 9.99333 21.9452 9.74C21.6518 9.48667 21.2885 9.36 20.8552 9.36C20.4618 9.36 20.1252 9.48667 19.8452 9.74C19.5652 9.98667 19.3985 10.3233 19.3452 10.75H22.3952ZM26.837 12.98L28.397 8.49H29.607L27.507 14H26.147L24.057 8.49H25.277L26.837 12.98ZM31.0488 7.76C30.8421 7.76 30.6688 7.69 30.5288 7.55C30.3888 7.41 30.3188 7.23667 30.3188 7.03C30.3188 6.82333 30.3888 6.65 30.5288 6.51C30.6688 6.37 30.8421 6.3 31.0488 6.3C31.2488 6.3 31.4188 6.37 31.5588 6.51C31.6988 6.65 31.7688 6.82333 31.7688 7.03C31.7688 7.23667 31.6988 7.41 31.5588 7.55C31.4188 7.69 31.2488 7.76 31.0488 7.76ZM31.6088 8.49V14H30.4688V8.49H31.6088ZM38.1555 11.11C38.1555 11.3167 38.1421 11.5033 38.1155 11.67H33.9055C33.9388 12.11 34.1021 12.4633 34.3955 12.73C34.6888 12.9967 35.0488 13.13 35.4755 13.13C36.0888 13.13 36.5221 12.8733 36.7755 12.36H38.0055C37.8388 12.8667 37.5355 13.2833 37.0955 13.61C36.6621 13.93 36.1221 14.09 35.4755 14.09C34.9488 14.09 34.4755 13.9733 34.0555 13.74C33.6421 13.5 33.3155 13.1667 33.0755 12.74C32.8421 12.3067 32.7255 11.8067 32.7255 11.24C32.7255 10.6733 32.8388 10.1767 33.0655 9.75C33.2988 9.31667 33.6221 8.98333 34.0355 8.75C34.4555 8.51667 34.9355 8.4 35.4755 8.4C35.9955 8.4 36.4588 8.51333 36.8655 8.74C37.2721 8.96667 37.5888 9.28667 37.8155 9.7C38.0421 10.1067 38.1555 10.5767 38.1555 11.11ZM36.9655 10.75C36.9588 10.33 36.8088 9.99333 36.5155 9.74C36.2221 9.48667 35.8588 9.36 35.4255 9.36C35.0321 9.36 34.6955 9.48667 34.4155 9.74C34.1355 9.98667 33.9688 10.3233 33.9155 10.75H36.9655ZM46.6773 8.49L44.9673 14H43.7673L42.6573 9.93L41.5473 14H40.3473L38.6273 8.49H39.7873L40.9373 12.92L42.1073 8.49H43.2973L44.4173 12.9L45.5573 8.49H46.6773Z" fill="#676A7B"/>
</svg>
