<svg width="24" height="25" viewBox="0 0 24 25" fill="none" xmlns="http://www.w3.org/2000/svg">
<path d="M14 6.5C13.4477 6.5 13 6.94772 13 7.5C13 8.05228 13.4477 8.5 14 8.5V6.5ZM10 8.5C10.5523 8.5 11 8.05228 11 7.5C11 6.94772 10.5523 6.5 10 6.5V8.5ZM10 18.5C10.5523 18.5 11 18.0523 11 17.5C11 16.9477 10.5523 16.5 10 16.5V18.5ZM14 16.5C13.4477 16.5 13 16.9477 13 17.5C13 18.0523 13.4477 18.5 14 18.5V16.5ZM8 11.5C7.44772 11.5 7 11.9477 7 12.5C7 13.0523 7.44772 13.5 8 13.5V11.5ZM16 13.5C16.5523 13.5 17 13.0523 17 12.5C17 11.9477 16.5523 11.5 16 11.5V13.5ZM8 16.5C5.79086 16.5 4 14.7091 4 12.5H2C2 15.8137 4.68629 18.5 8 18.5V16.5ZM20 12.5C20 14.7091 18.2091 16.5 16 16.5V18.5C19.3137 18.5 22 15.8137 22 12.5H20ZM16 8.5C18.2091 8.5 20 10.2909 20 12.5H22C22 9.18629 19.3137 6.5 16 6.5V8.5ZM8 6.5C4.68629 6.5 2 9.18629 2 12.5H4C4 10.2909 5.79086 8.5 8 8.5V6.5ZM14 8.5H16V6.5H14V8.5ZM8 8.5H10V6.5H8V8.5ZM10 16.5H8V18.5H10V16.5ZM16 16.5H14V18.5H16V16.5ZM8 13.5H16V11.5H8V13.5Z" fill="#131A29"/>
</svg>
