<svg width="18" height="18" viewBox="0 0 18 18" fill="none" xmlns="http://www.w3.org/2000/svg">
<rect x="0.5" y="0.5" width="17" height="17" rx="8.5" stroke="#B3B3B3"/>
<path d="M8.91548 5.54C9.73148 5.54 10.3835 5.764 10.8715 6.212C11.3675 6.66 11.6155 7.272 11.6155 8.048C11.6155 8.856 11.3595 9.464 10.8475 9.872C10.3355 10.28 9.65548 10.484 8.80748 10.484L8.75948 11.432H7.57148L7.51148 9.548H7.90748C8.68348 9.548 9.27548 9.444 9.68348 9.236C10.0995 9.028 10.3075 8.632 10.3075 8.048C10.3075 7.624 10.1835 7.292 9.93548 7.052C9.69548 6.812 9.35948 6.692 8.92748 6.692C8.49548 6.692 8.15548 6.808 7.90748 7.04C7.65948 7.272 7.53548 7.596 7.53548 8.012H6.25148C6.25148 7.532 6.35948 7.104 6.57548 6.728C6.79148 6.352 7.09948 6.06 7.49948 5.852C7.90748 5.644 8.37948 5.54 8.91548 5.54ZM8.14748 14.084C7.89948 14.084 7.69148 14 7.52348 13.832C7.35548 13.664 7.27148 13.456 7.27148 13.208C7.27148 12.96 7.35548 12.752 7.52348 12.584C7.69148 12.416 7.89948 12.332 8.14748 12.332C8.38748 12.332 8.59148 12.416 8.75948 12.584C8.92748 12.752 9.01148 12.96 9.01148 13.208C9.01148 13.456 8.92748 13.664 8.75948 13.832C8.59148 14 8.38748 14.084 8.14748 14.084Z" fill="#363E6D"/>
</svg>
