<svg width="30" height="30" viewBox="0 0 30 30" fill="none" xmlns="http://www.w3.org/2000/svg">
<path d="M5.44543 25.3845C7.13475 26.9808 9.1886 28.1353 11.4251 28.7457C13.6615 29.3561 16.0116 29.4036 18.267 28.884C20.5225 28.3643 22.6137 27.2936 24.3555 25.7667C26.0973 24.2397 27.4359 22.3037 28.2527 20.13C29.0695 17.9563 29.3394 15.6121 29.0383 13.305C28.7372 10.998 27.8745 8.79924 26.5267 6.90361C25.1788 5.00798 23.3874 3.47396 21.311 2.43744C19.2347 1.40091 16.9376 0.893877 14.6231 0.961243L15.0766 15.0984L5.44543 25.3845Z" fill="#C9DCF8"/>
<path d="M7.6 15.26C7.6 14.1067 7.79333 13.2067 8.18 12.56C8.57333 11.9067 9.24667 11.58 10.2 11.58C11.1533 11.58 11.8233 11.9067 12.21 12.56C12.6033 13.2067 12.8 14.1067 12.8 15.26C12.8 16.4267 12.6033 17.34 12.21 18C11.8233 18.6533 11.1533 18.98 10.2 18.98C9.24667 18.98 8.57333 18.6533 8.18 18C7.79333 17.34 7.6 16.4267 7.6 15.26ZM11.68 15.26C11.68 14.72 11.6433 14.2633 11.57 13.89C11.5033 13.5167 11.3633 13.2133 11.15 12.98C10.9367 12.74 10.62 12.62 10.2 12.62C9.78 12.62 9.46333 12.74 9.25 12.98C9.03667 13.2133 8.89333 13.5167 8.82 13.89C8.75333 14.2633 8.72 14.72 8.72 15.26C8.72 15.82 8.75333 16.29 8.82 16.67C8.88667 17.05 9.02667 17.3567 9.24 17.59C9.46 17.8233 9.78 17.94 10.2 17.94C10.62 17.94 10.9367 17.8233 11.15 17.59C11.37 17.3567 11.5133 17.05 11.58 16.67C11.6467 16.29 11.68 15.82 11.68 15.26ZM17.8563 9.56L15.1363 20.75H14.0163L16.7263 9.56H17.8563ZM19.773 17.45C20.413 16.8967 20.9163 16.4433 21.283 16.09C21.6563 15.73 21.9663 15.3567 22.213 14.97C22.4596 14.5833 22.583 14.1967 22.583 13.81C22.583 13.41 22.4863 13.0967 22.293 12.87C22.1063 12.6433 21.8096 12.53 21.403 12.53C21.0096 12.53 20.703 12.6567 20.483 12.91C20.2696 13.1567 20.1563 13.49 20.143 13.91H19.043C19.063 13.15 19.2896 12.57 19.723 12.17C20.163 11.7633 20.7196 11.56 21.393 11.56C22.1196 11.56 22.6863 11.76 23.093 12.16C23.5063 12.56 23.713 13.0933 23.713 13.76C23.713 14.24 23.5896 14.7033 23.343 15.15C23.103 15.59 22.813 15.9867 22.473 16.34C22.1396 16.6867 21.713 17.09 21.193 17.55L20.743 17.95H23.913V18.9H19.053V18.07L19.773 17.45Z" fill="#676A7B"/>
<circle cx="15.5" cy="15.5" r="13.5" stroke="#C9DCF8" stroke-width="2"/>
</svg>
