<svg width="30" height="30" viewBox="0 0 30 30" fill="none" xmlns="http://www.w3.org/2000/svg">
<path d="M5.44543 25.3845C7.13475 26.9808 9.1886 28.1353 11.4251 28.7457C13.6615 29.3561 16.0116 29.4036 18.267 28.884C20.5225 28.3643 22.6137 27.2936 24.3555 25.7667C26.0973 24.2397 27.4359 22.3037 28.2527 20.13C29.0695 17.9563 29.3394 15.6121 29.0383 13.305C28.7372 10.998 27.8745 8.79924 26.5267 6.90361C25.1788 5.00798 23.3874 3.47396 21.311 2.43744C19.2347 1.40091 16.9376 0.893877 14.6231 0.961243L15.0766 15.0984L5.44543 25.3845Z" fill="#C9DCF8"/>
<path d="M8.23 17.45C8.87 16.8967 9.37333 16.4433 9.74 16.09C10.1133 15.73 10.4233 15.3567 10.67 14.97C10.9167 14.5833 11.04 14.1967 11.04 13.81C11.04 13.41 10.9433 13.0967 10.75 12.87C10.5633 12.6433 10.2667 12.53 9.86 12.53C9.46667 12.53 9.16 12.6567 8.94 12.91C8.72667 13.1567 8.61333 13.49 8.6 13.91H7.5C7.52 13.15 7.74667 12.57 8.18 12.17C8.62 11.7633 9.17667 11.56 9.85 11.56C10.5767 11.56 11.1433 11.76 11.55 12.16C11.9633 12.56 12.17 13.0933 12.17 13.76C12.17 14.24 12.0467 14.7033 11.8 15.15C11.56 15.59 11.27 15.9867 10.93 16.34C10.5967 16.6867 10.17 17.09 9.65 17.55L9.2 17.95H12.37V18.9H7.51V18.07L8.23 17.45ZM17.2215 9.56L14.5015 20.75H13.3815L16.0915 9.56H17.2215ZM18.3682 17.48V16.62L21.7282 11.8H23.1082V16.49H24.0382V17.48H23.1082V19H21.9882V17.48H18.3682ZM22.0382 12.96L19.6782 16.49H22.0382V12.96Z" fill="#676A7B"/>
<circle cx="15.5" cy="15.5" r="13.5" stroke="#C9DCF8" stroke-width="2"/>
</svg>
