<svg width="104" height="37" viewBox="0 0 104 37" fill="none" xmlns="http://www.w3.org/2000/svg">
<g filter="url(#filter0_d_468_7264)">
<rect x="2" width="100" height="33" rx="7" fill="#5570F1"/>
<path d="M33.3543 21L31.4343 17.664H30.3903V21H29.0223V12.66H31.9023C32.5423 12.66 33.0823 12.772 33.5223 12.996C33.9703 13.22 34.3023 13.52 34.5183 13.896C34.7423 14.272 34.8543 14.692 34.8543 15.156C34.8543 15.7 34.6943 16.196 34.3743 16.644C34.0623 17.084 33.5783 17.384 32.9223 17.544L34.9863 21H33.3543ZM30.3903 16.572H31.9023C32.4143 16.572 32.7983 16.444 33.0543 16.188C33.3183 15.932 33.4503 15.588 33.4503 15.156C33.4503 14.724 33.3223 14.388 33.0663 14.148C32.8103 13.9 32.4223 13.776 31.9023 13.776H30.3903V16.572ZM42.4244 17.532C42.4244 17.78 42.4084 18.004 42.3764 18.204H37.3244C37.3644 18.732 37.5604 19.156 37.9124 19.476C38.2644 19.796 38.6964 19.956 39.2084 19.956C39.9444 19.956 40.4644 19.648 40.7684 19.032H42.2444C42.0444 19.64 41.6804 20.14 41.1524 20.532C40.6324 20.916 39.9844 21.108 39.2084 21.108C38.5764 21.108 38.0084 20.968 37.5044 20.688C37.0084 20.4 36.6164 20 36.3284 19.488C36.0484 18.968 35.9084 18.368 35.9084 17.688C35.9084 17.008 36.0444 16.412 36.3164 15.9C36.5964 15.38 36.9844 14.98 37.4804 14.7C37.9844 14.42 38.5604 14.28 39.2084 14.28C39.8324 14.28 40.3884 14.416 40.8764 14.688C41.3644 14.96 41.7444 15.344 42.0164 15.84C42.2884 16.328 42.4244 16.892 42.4244 17.532ZM40.9964 17.1C40.9884 16.596 40.8084 16.192 40.4564 15.888C40.1044 15.584 39.6684 15.432 39.1484 15.432C38.6764 15.432 38.2724 15.584 37.9364 15.888C37.6004 16.184 37.4004 16.588 37.3364 17.1H40.9964ZM43.0746 17.664C43.0746 17 43.2106 16.412 43.4826 15.9C43.7626 15.388 44.1386 14.992 44.6106 14.712C45.0906 14.424 45.6226 14.28 46.2066 14.28C46.7186 14.28 47.1706 14.384 47.5626 14.592C47.9626 14.8 48.2706 15.052 48.4866 15.348V14.388H49.8666V24.144H48.4866V20.04C48.2706 20.336 47.9586 20.588 47.5506 20.796C47.1426 21.004 46.6786 21.108 46.1586 21.108C45.5906 21.108 45.0706 20.964 44.5986 20.676C44.1346 20.38 43.7626 19.972 43.4826 19.452C43.2106 18.924 43.0746 18.328 43.0746 17.664ZM48.4866 17.688C48.4866 17.232 48.3906 16.836 48.1986 16.5C48.0146 16.164 47.7706 15.908 47.4666 15.732C47.1626 15.556 46.8346 15.468 46.4826 15.468C46.1306 15.468 45.8026 15.556 45.4986 15.732C45.1946 15.9 44.9466 16.152 44.7546 16.488C44.5706 16.816 44.4786 17.208 44.4786 17.664C44.4786 18.12 44.5706 18.52 44.7546 18.864C44.9466 19.208 45.1946 19.472 45.4986 19.656C45.8106 19.832 46.1386 19.92 46.4826 19.92C46.8346 19.92 47.1626 19.832 47.4666 19.656C47.7706 19.48 48.0146 19.224 48.1986 18.888C48.3906 18.544 48.4866 18.144 48.4866 17.688ZM57.4114 14.388V21H56.0434V20.22C55.8274 20.492 55.5434 20.708 55.1914 20.868C54.8474 21.02 54.4794 21.096 54.0874 21.096C53.5674 21.096 53.0994 20.988 52.6834 20.772C52.2754 20.556 51.9514 20.236 51.7114 19.812C51.4794 19.388 51.3634 18.876 51.3634 18.276V14.388H52.7194V18.072C52.7194 18.664 52.8674 19.12 53.1634 19.44C53.4594 19.752 53.8634 19.908 54.3754 19.908C54.8874 19.908 55.2914 19.752 55.5874 19.44C55.8914 19.12 56.0434 18.664 56.0434 18.072V14.388H57.4114ZM65.0364 17.532C65.0364 17.78 65.0204 18.004 64.9884 18.204H59.9364C59.9764 18.732 60.1724 19.156 60.5244 19.476C60.8764 19.796 61.3084 19.956 61.8204 19.956C62.5564 19.956 63.0764 19.648 63.3804 19.032H64.8564C64.6564 19.64 64.2924 20.14 63.7644 20.532C63.2444 20.916 62.5964 21.108 61.8204 21.108C61.1884 21.108 60.6204 20.968 60.1164 20.688C59.6204 20.4 59.2284 20 58.9404 19.488C58.6604 18.968 58.5204 18.368 58.5204 17.688C58.5204 17.008 58.6564 16.412 58.9284 15.9C59.2084 15.38 59.5964 14.98 60.0924 14.7C60.5964 14.42 61.1724 14.28 61.8204 14.28C62.4444 14.28 63.0004 14.416 63.4884 14.688C63.9764 14.96 64.3564 15.344 64.6284 15.84C64.9004 16.328 65.0364 16.892 65.0364 17.532ZM63.6084 17.1C63.6004 16.596 63.4204 16.192 63.0684 15.888C62.7164 15.584 62.2804 15.432 61.7604 15.432C61.2884 15.432 60.8844 15.584 60.5484 15.888C60.2124 16.184 60.0124 16.588 59.9484 17.1H63.6084ZM68.5427 21.108C68.0227 21.108 67.5547 21.016 67.1387 20.832C66.7307 20.64 66.4067 20.384 66.1667 20.064C65.9267 19.736 65.7987 19.372 65.7827 18.972H67.1987C67.2227 19.252 67.3547 19.488 67.5947 19.68C67.8427 19.864 68.1507 19.956 68.5187 19.956C68.9027 19.956 69.1987 19.884 69.4067 19.74C69.6227 19.588 69.7307 19.396 69.7307 19.164C69.7307 18.916 69.6107 18.732 69.3707 18.612C69.1387 18.492 68.7667 18.36 68.2547 18.216C67.7587 18.08 67.3547 17.948 67.0427 17.82C66.7307 17.692 66.4587 17.496 66.2267 17.232C66.0027 16.968 65.8907 16.62 65.8907 16.188C65.8907 15.836 65.9947 15.516 66.2027 15.228C66.4107 14.932 66.7067 14.7 67.0907 14.532C67.4827 14.364 67.9307 14.28 68.4347 14.28C69.1867 14.28 69.7907 14.472 70.2467 14.856C70.7107 15.232 70.9587 15.748 70.9907 16.404H69.6227C69.5987 16.108 69.4787 15.872 69.2627 15.696C69.0467 15.52 68.7547 15.432 68.3867 15.432C68.0267 15.432 67.7507 15.5 67.5587 15.636C67.3667 15.772 67.2707 15.952 67.2707 16.176C67.2707 16.352 67.3347 16.5 67.4627 16.62C67.5907 16.74 67.7467 16.836 67.9307 16.908C68.1147 16.972 68.3867 17.056 68.7467 17.16C69.2267 17.288 69.6187 17.42 69.9227 17.556C70.2347 17.684 70.5027 17.876 70.7267 18.132C70.9507 18.388 71.0667 18.728 71.0747 19.152C71.0747 19.528 70.9707 19.864 70.7627 20.16C70.5547 20.456 70.2587 20.688 69.8747 20.856C69.4987 21.024 69.0547 21.108 68.5427 21.108ZM73.9088 15.504V19.164C73.9088 19.412 73.9648 19.592 74.0768 19.704C74.1968 19.808 74.3968 19.86 74.6768 19.86H75.5168V21H74.4368C73.8208 21 73.3488 20.856 73.0208 20.568C72.6928 20.28 72.5288 19.812 72.5288 19.164V15.504H71.7488V14.388H72.5288V12.744H73.9088V14.388H75.5168V15.504H73.9088Z" fill="#F5FAFA"/>
</g>
<defs>
<filter id="filter0_d_468_7264" x="0" y="0" width="104" height="37" filterUnits="userSpaceOnUse" color-interpolation-filters="sRGB">
<feFlood flood-opacity="0" result="BackgroundImageFix"/>
<feColorMatrix in="SourceAlpha" type="matrix" values="0 0 0 0 0 0 0 0 0 0 0 0 0 0 0 0 0 0 127 0" result="hardAlpha"/>
<feOffset dy="2"/>
<feGaussianBlur stdDeviation="1"/>
<feComposite in2="hardAlpha" operator="out"/>
<feColorMatrix type="matrix" values="0 0 0 0 0.490196 0 0 0 0 0.345098 0 0 0 0 0.623529 0 0 0 0.25 0"/>
<feBlend mode="normal" in2="BackgroundImageFix" result="effect1_dropShadow_468_7264"/>
<feBlend mode="normal" in="SourceGraphic" in2="effect1_dropShadow_468_7264" result="shape"/>
</filter>
</defs>
</svg>
