<svg width="110" height="40" viewBox="0 0 110 40" fill="none" xmlns="http://www.w3.org/2000/svg">
<rect width="110" height="40" rx="10" fill="#5570F1"/>
<path d="M43.0767 23.154H39.2937L38.6437 25H37.0967L40.3337 15.952H42.0497L45.2867 25H43.7267L43.0767 23.154ZM42.6607 21.945L41.1917 17.746L39.7097 21.945H42.6607ZM45.9402 21.386C45.9402 20.6667 46.0875 20.0297 46.3822 19.475C46.6855 18.9203 47.0929 18.4913 47.6042 18.188C48.1242 17.876 48.7005 17.72 49.3332 17.72C49.8012 17.72 50.2605 17.824 50.7112 18.032C51.1705 18.2313 51.5345 18.5 51.8032 18.838V15.38H53.2982V25H51.8032V23.921C51.5605 24.2677 51.2225 24.5537 50.7892 24.779C50.3645 25.0043 49.8749 25.117 49.3202 25.117C48.6962 25.117 48.1242 24.961 47.6042 24.649C47.0929 24.3283 46.6855 23.8863 46.3822 23.323C46.0875 22.751 45.9402 22.1053 45.9402 21.386ZM51.8032 21.412C51.8032 20.918 51.6992 20.489 51.4912 20.125C51.2919 19.761 51.0275 19.4837 50.6982 19.293C50.3689 19.1023 50.0135 19.007 49.6322 19.007C49.2509 19.007 48.8955 19.1023 48.5662 19.293C48.2369 19.475 47.9682 19.748 47.7602 20.112C47.5609 20.4673 47.4612 20.892 47.4612 21.386C47.4612 21.88 47.5609 22.3133 47.7602 22.686C47.9682 23.0587 48.2369 23.3447 48.5662 23.544C48.9042 23.7347 49.2595 23.83 49.6322 23.83C50.0135 23.83 50.3689 23.7347 50.6982 23.544C51.0275 23.3533 51.2919 23.076 51.4912 22.712C51.6992 22.3393 51.8032 21.906 51.8032 21.412ZM54.4907 21.386C54.4907 20.6667 54.6381 20.0297 54.9327 19.475C55.2361 18.9203 55.6434 18.4913 56.1547 18.188C56.6747 17.876 57.2511 17.72 57.8837 17.72C58.3517 17.72 58.8111 17.824 59.2617 18.032C59.7211 18.2313 60.0851 18.5 60.3537 18.838V15.38H61.8487V25H60.3537V23.921C60.1111 24.2677 59.7731 24.5537 59.3397 24.779C58.9151 25.0043 58.4254 25.117 57.8707 25.117C57.2467 25.117 56.6747 24.961 56.1547 24.649C55.6434 24.3283 55.2361 23.8863 54.9327 23.323C54.6381 22.751 54.4907 22.1053 54.4907 21.386ZM60.3537 21.412C60.3537 20.918 60.2497 20.489 60.0417 20.125C59.8424 19.761 59.5781 19.4837 59.2487 19.293C58.9194 19.1023 58.5641 19.007 58.1827 19.007C57.8014 19.007 57.4461 19.1023 57.1167 19.293C56.7874 19.475 56.5187 19.748 56.3107 20.112C56.1114 20.4673 56.0117 20.892 56.0117 21.386C56.0117 21.88 56.1114 22.3133 56.3107 22.686C56.5187 23.0587 56.7874 23.3447 57.1167 23.544C57.4547 23.7347 57.8101 23.83 58.1827 23.83C58.5641 23.83 58.9194 23.7347 59.2487 23.544C59.5781 23.3533 59.8424 23.076 60.0417 22.712C60.2497 22.3393 60.3537 21.906 60.3537 21.412ZM68.3812 19.046V23.011C68.3812 23.2797 68.4419 23.4747 68.5632 23.596C68.6932 23.7087 68.9099 23.765 69.2132 23.765H70.1232V25H68.9532C68.2859 25 67.7746 24.844 67.4192 24.532C67.0639 24.22 66.8862 23.713 66.8862 23.011V19.046H66.0412V17.837H66.8862V16.056H68.3812V17.837H70.1232V19.046H68.3812ZM70.7352 21.386C70.7352 20.6667 70.8825 20.0297 71.1772 19.475C71.4805 18.9203 71.8878 18.4913 72.3992 18.188C72.9192 17.876 73.4912 17.72 74.1152 17.72C74.6785 17.72 75.1682 17.8327 75.5842 18.058C76.0088 18.2747 76.3468 18.5477 76.5982 18.877V17.837H78.0932V25H76.5982V23.934C76.3468 24.272 76.0045 24.5537 75.5712 24.779C75.1378 25.0043 74.6438 25.117 74.0892 25.117C73.4738 25.117 72.9105 24.961 72.3992 24.649C71.8878 24.3283 71.4805 23.8863 71.1772 23.323C70.8825 22.751 70.7352 22.1053 70.7352 21.386ZM76.5982 21.412C76.5982 20.918 76.4942 20.489 76.2862 20.125C76.0868 19.761 75.8225 19.4837 75.4932 19.293C75.1638 19.1023 74.8085 19.007 74.4272 19.007C74.0458 19.007 73.6905 19.1023 73.3612 19.293C73.0318 19.475 72.7632 19.748 72.5552 20.112C72.3558 20.4673 72.2562 20.892 72.2562 21.386C72.2562 21.88 72.3558 22.3133 72.5552 22.686C72.7632 23.0587 73.0318 23.3447 73.3612 23.544C73.6992 23.7347 74.0545 23.83 74.4272 23.83C74.8085 23.83 75.1638 23.7347 75.4932 23.544C75.8225 23.3533 76.0868 23.076 76.2862 22.712C76.4942 22.3393 76.5982 21.906 76.5982 21.412ZM82.3797 25.117C81.8164 25.117 81.3094 25.0173 80.8587 24.818C80.4167 24.61 80.0657 24.3327 79.8057 23.986C79.5457 23.6307 79.407 23.2363 79.3897 22.803H80.9237C80.9497 23.1063 81.0927 23.362 81.3527 23.57C81.6214 23.7693 81.955 23.869 82.3537 23.869C82.7697 23.869 83.0904 23.791 83.3157 23.635C83.5497 23.4703 83.6667 23.2623 83.6667 23.011C83.6667 22.7423 83.5367 22.543 83.2767 22.413C83.0254 22.283 82.6224 22.14 82.0677 21.984C81.5304 21.8367 81.0927 21.6937 80.7547 21.555C80.4167 21.4163 80.122 21.204 79.8707 20.918C79.628 20.632 79.5067 20.255 79.5067 19.787C79.5067 19.4057 79.6194 19.059 79.8447 18.747C80.07 18.4263 80.3907 18.175 80.8067 17.993C81.2314 17.811 81.7167 17.72 82.2627 17.72C83.0774 17.72 83.7317 17.928 84.2257 18.344C84.7284 18.7513 84.997 19.3103 85.0317 20.021H83.5497C83.5237 19.7003 83.3937 19.4447 83.1597 19.254C82.9257 19.0633 82.6094 18.968 82.2107 18.968C81.8207 18.968 81.5217 19.0417 81.3137 19.189C81.1057 19.3363 81.0017 19.5313 81.0017 19.774C81.0017 19.9647 81.071 20.125 81.2097 20.255C81.3484 20.385 81.5174 20.489 81.7167 20.567C81.916 20.6363 82.2107 20.7273 82.6007 20.84C83.1207 20.9787 83.5454 21.1217 83.8747 21.269C84.2127 21.4077 84.503 21.6157 84.7457 21.893C84.9884 22.1703 85.114 22.5387 85.1227 22.998C85.1227 23.4053 85.01 23.7693 84.7847 24.09C84.5594 24.4107 84.2387 24.662 83.8227 24.844C83.4154 25.026 82.9344 25.117 82.3797 25.117ZM89.298 21.425L92.6 25H90.598L87.946 21.919V25H86.464V15.38H87.946V20.97L90.546 17.837H92.6L89.298 21.425Z" fill="#F5FAFA"/>
<path d="M17 20H27.8197" stroke="white" stroke-width="2" stroke-linecap="square"/>
<path d="M22.4102 26V14" stroke="white" stroke-width="2" stroke-linecap="square"/>
</svg>
