<svg width="18" height="21" viewBox="0 0 18 21" fill="none" xmlns="http://www.w3.org/2000/svg">
<path d="M14.8824 14.7V15.1167L15.1782 15.4101L16.6303 16.85H1.36973L2.82176 15.4101L3.11761 15.1167V14.7V8.925C3.11761 6.20119 5.05912 3.8674 7.63239 3.28531L8.41176 3.10901V2.30995V1.575C8.41176 1.24256 8.64427 1 9 1C9.35573 1 9.58824 1.24256 9.58824 1.575V2.30995V3.109L10.3676 3.28531C12.9408 3.8674 14.8824 6.20119 14.8824 8.925V14.7ZM9.46323 19.9C9.32233 19.964 9.16555 20 9 20C8.83444 20 8.67766 19.964 8.53676 19.9H9.46323Z" stroke="#A3AED0" stroke-width="2"/>
</svg>
