<svg width="24" height="25" viewBox="0 0 24 25" fill="none" xmlns="http://www.w3.org/2000/svg">
<path d="M8.4 14.3C8.4 14.3 9.75 16.1 12 16.1C14.25 16.1 15.6 14.3 15.6 14.3M14.7 9.8H14.709M9.3 9.8H9.309M21 12.5C21 17.4706 16.9706 21.5 12 21.5C7.02944 21.5 3 17.4706 3 12.5C3 7.52944 7.02944 3.5 12 3.5C16.9706 3.5 21 7.52944 21 12.5ZM15.15 9.8C15.15 10.0485 14.9485 10.25 14.7 10.25C14.4515 10.25 14.25 10.0485 14.25 9.8C14.25 9.55147 14.4515 9.35 14.7 9.35C14.9485 9.35 15.15 9.55147 15.15 9.8ZM9.75 9.8C9.75 10.0485 9.54853 10.25 9.3 10.25C9.05147 10.25 8.85 10.0485 8.85 9.8C8.85 9.55147 9.05147 9.35 9.3 9.35C9.54853 9.35 9.75 9.55147 9.75 9.8Z" stroke="#131A29" stroke-width="2" stroke-linecap="round" stroke-linejoin="round"/>
</svg>
