<svg width="54" height="23" viewBox="0 0 54 23" fill="none" xmlns="http://www.w3.org/2000/svg">
<rect width="54" height="23" rx="6" fill="#E37676"/>
<path d="M20.3025 7.61477V15.2598H19.0485V11.9158H15.4515V15.2598H14.1975V7.61477H15.4515V10.8928H19.0485V7.61477H20.3025ZM22.5913 8.39577C22.364 8.39577 22.1733 8.31877 22.0193 8.16477C21.8653 8.01077 21.7883 7.8201 21.7883 7.59277C21.7883 7.36543 21.8653 7.17477 22.0193 7.02077C22.1733 6.86677 22.364 6.78977 22.5913 6.78977C22.8113 6.78977 22.9983 6.86677 23.1523 7.02077C23.3063 7.17477 23.3833 7.36543 23.3833 7.59277C23.3833 7.8201 23.3063 8.01077 23.1523 8.16477C22.9983 8.31877 22.8113 8.39577 22.5913 8.39577ZM23.2073 9.19877V15.2598H21.9533V9.19877H23.2073ZM27.2957 9.09977C27.765 9.09977 28.1794 9.1951 28.5387 9.38577C28.9054 9.5691 29.1914 9.8001 29.3967 10.0788V9.19877H30.6617V15.3588C30.6617 15.9161 30.5444 16.4111 30.3097 16.8438C30.075 17.2838 29.734 17.6284 29.2867 17.8778C28.8467 18.1271 28.3187 18.2518 27.7027 18.2518C26.8814 18.2518 26.1994 18.0574 25.6567 17.6688C25.114 17.2874 24.806 16.7668 24.7327 16.1068H25.9757C26.071 16.4221 26.2727 16.6751 26.5807 16.8658C26.896 17.0638 27.27 17.1628 27.7027 17.1628C28.2087 17.1628 28.6157 17.0088 28.9237 16.7008C29.239 16.3928 29.3967 15.9454 29.3967 15.3588V14.3468C29.184 14.6328 28.8944 14.8748 28.5277 15.0728C28.1684 15.2634 27.7577 15.3588 27.2957 15.3588C26.7677 15.3588 26.2837 15.2268 25.8437 14.9628C25.411 14.6914 25.0664 14.3174 24.8097 13.8408C24.5604 13.3568 24.4357 12.8104 24.4357 12.2018C24.4357 11.5931 24.5604 11.0541 24.8097 10.5848C25.0664 10.1154 25.411 9.75243 25.8437 9.49577C26.2837 9.23177 26.7677 9.09977 27.2957 9.09977ZM29.3967 12.2238C29.3967 11.8058 29.3087 11.4428 29.1327 11.1348C28.964 10.8268 28.7404 10.5921 28.4617 10.4308C28.183 10.2694 27.8824 10.1888 27.5597 10.1888C27.237 10.1888 26.9364 10.2694 26.6577 10.4308C26.379 10.5848 26.1517 10.8158 25.9757 11.1238C25.807 11.4244 25.7227 11.7838 25.7227 12.2018C25.7227 12.6198 25.807 12.9864 25.9757 13.3018C26.1517 13.6171 26.379 13.8591 26.6577 14.0278C26.9437 14.1891 27.2444 14.2698 27.5597 14.2698C27.8824 14.2698 28.183 14.1891 28.4617 14.0278C28.7404 13.8664 28.964 13.6318 29.1327 13.3238C29.3087 13.0084 29.3967 12.6418 29.3967 12.2238ZM35.4438 9.09977C35.9058 9.09977 36.3165 9.19877 36.6758 9.39677C37.0425 9.59477 37.3285 9.8881 37.5338 10.2768C37.7465 10.6654 37.8528 11.1348 37.8528 11.6848V15.2598H36.6098V11.8718C36.6098 11.3291 36.4741 10.9148 36.2028 10.6288C35.9315 10.3354 35.5611 10.1888 35.0918 10.1888C34.6225 10.1888 34.2485 10.3354 33.9698 10.6288C33.6985 10.9148 33.5628 11.3291 33.5628 11.8718V15.2598H32.3088V7.11977H33.5628V9.90277C33.7755 9.6461 34.0431 9.4481 34.3658 9.30877C34.6958 9.16943 35.0551 9.09977 35.4438 9.09977Z" fill="white"/>
</svg>
