<svg width="119" height="32" viewBox="0 0 119 32" fill="none" xmlns="http://www.w3.org/2000/svg">
<path d="M74.5094 19.0664V19.5027L74.8292 19.7995L76.6974 21.5331H58.1326L60.0008 19.7995L60.3206 19.5027V19.0664V12.7109C60.3206 9.71351 62.6115 7.07436 65.7541 6.40916L66.547 6.24132V5.43084V4.622C66.547 4.26107 66.8369 3.88867 67.415 3.88867C67.9931 3.88867 68.2829 4.26107 68.2829 4.622V5.43084V6.24132L69.0758 6.40916C72.2184 7.07436 74.5094 9.71352 74.5094 12.7109V19.0664ZM68.3746 24.6887C68.124 24.8785 67.7959 24.9998 67.415 24.9998C67.034 24.9998 66.706 24.8785 66.4553 24.6887H68.3746Z" stroke="#7D589F" stroke-opacity="0.9" stroke-width="2"/>
<circle cx="15.5059" cy="15.5059" r="15.5059" fill="#FDE1A7"/>
<path d="M11.51 19.12C10.83 19.12 10.2833 18.93 9.87 18.55C9.46333 18.1633 9.26 17.6167 9.26 16.91H10.54C10.5467 17.2367 10.6233 17.4967 10.77 17.69C10.9167 17.8833 11.1533 17.98 11.48 17.98C11.7867 17.98 12.01 17.89 12.15 17.71C12.29 17.5233 12.36 17.28 12.36 16.98V12H13.64V16.98C13.64 17.6667 13.4467 18.1967 13.06 18.57C12.68 18.9367 12.1633 19.12 11.51 19.12ZM17.9723 19.12C17.2656 19.12 16.6589 18.97 16.1523 18.67C15.6456 18.3633 15.2556 17.94 14.9823 17.4C14.7089 16.8533 14.5723 16.2233 14.5723 15.51C14.5723 14.7967 14.7089 14.1667 14.9823 13.62C15.2556 13.0733 15.6456 12.6467 16.1523 12.34C16.6589 12.0333 17.2656 11.88 17.9723 11.88C18.8123 11.88 19.4989 12.09 20.0323 12.51C20.5723 12.9233 20.9089 13.5067 21.0423 14.26H19.6323C19.5456 13.88 19.3589 13.5833 19.0723 13.37C18.7923 13.15 18.4189 13.04 17.9523 13.04C17.3056 13.04 16.7989 13.26 16.4323 13.7C16.0656 14.14 15.8823 14.7433 15.8823 15.51C15.8823 16.2767 16.0656 16.88 16.4323 17.32C16.7989 17.7533 17.3056 17.97 17.9523 17.97C18.4189 17.97 18.7923 17.87 19.0723 17.67C19.3589 17.4633 19.5456 17.18 19.6323 16.82H21.0423C20.9089 17.54 20.5723 18.1033 20.0323 18.51C19.4989 18.9167 18.8123 19.12 17.9723 19.12Z" fill="#F0A200"/>
<path d="M81.568 20V14.4H83.496C83.9387 14.4 84.3013 14.4747 84.584 14.624C84.872 14.7733 85.0853 14.976 85.224 15.232C85.3627 15.4827 85.432 15.7627 85.432 16.072C85.432 16.4187 85.3387 16.7333 85.152 17.016C84.9707 17.2987 84.6853 17.5013 84.296 17.624L85.488 20H84.504L83.416 17.744H82.416V20H81.568ZM82.416 17.104H83.448C83.832 17.104 84.112 17.0107 84.288 16.824C84.4693 16.6373 84.56 16.3947 84.56 16.096C84.56 15.7973 84.472 15.56 84.296 15.384C84.12 15.2027 83.8347 15.112 83.44 15.112H82.416V17.104ZM87.857 20.096C87.4677 20.096 87.121 20.0107 86.817 19.84C86.5183 19.664 86.2837 19.4213 86.113 19.112C85.9423 18.8027 85.857 18.4427 85.857 18.032C85.857 17.616 85.9397 17.2507 86.105 16.936C86.2757 16.6213 86.5103 16.376 86.809 16.2C87.113 16.024 87.465 15.936 87.865 15.936C88.2543 15.936 88.593 16.024 88.881 16.2C89.169 16.3707 89.393 16.6 89.553 16.888C89.713 17.176 89.793 17.4933 89.793 17.84C89.793 17.8933 89.7903 17.952 89.785 18.016C89.785 18.0747 89.7823 18.1413 89.777 18.216H86.689C86.7157 18.6 86.841 18.8933 87.065 19.096C87.2943 19.2933 87.5583 19.392 87.857 19.392C88.097 19.392 88.297 19.3387 88.457 19.232C88.6223 19.12 88.745 18.9707 88.825 18.784H89.673C89.5663 19.1573 89.353 19.4693 89.033 19.72C88.7183 19.9707 88.3263 20.096 87.857 20.096ZM87.857 16.632C87.5743 16.632 87.3237 16.7173 87.105 16.888C86.8863 17.0533 86.753 17.304 86.705 17.64H88.945C88.929 17.3307 88.8197 17.0853 88.617 16.904C88.4143 16.7227 88.161 16.632 87.857 16.632ZM90.5129 20V16.032H91.2649L91.3369 16.592C91.4649 16.3893 91.6329 16.2293 91.8409 16.112C92.0542 15.9947 92.2995 15.936 92.5769 15.936C93.2062 15.936 93.6435 16.184 93.8889 16.68C94.0329 16.4507 94.2249 16.2693 94.4649 16.136C94.7102 16.0027 94.9742 15.936 95.2569 15.936C95.7529 15.936 96.1422 16.0853 96.4249 16.384C96.7075 16.6827 96.8489 17.128 96.8489 17.72V20H96.0009V17.808C96.0009 17.04 95.7075 16.656 95.1209 16.656C94.8222 16.656 94.5769 16.768 94.3849 16.992C94.1982 17.216 94.1049 17.536 94.1049 17.952V20H93.2569V17.808C93.2569 17.04 92.9609 16.656 92.3689 16.656C92.0755 16.656 91.8329 16.768 91.6409 16.992C91.4542 17.216 91.3609 17.536 91.3609 17.952V20H90.5129ZM98.161 15.28C98.001 15.28 97.8677 15.232 97.761 15.136C97.6597 15.0347 97.609 14.9093 97.609 14.76C97.609 14.6107 97.6597 14.488 97.761 14.392C97.8677 14.2907 98.001 14.24 98.161 14.24C98.321 14.24 98.4517 14.2907 98.553 14.392C98.6597 14.488 98.713 14.6107 98.713 14.76C98.713 14.9093 98.6597 15.0347 98.553 15.136C98.4517 15.232 98.321 15.28 98.161 15.28ZM97.737 20V16.032H98.585V20H97.737ZM99.5444 20V16.032H100.296L100.36 16.728C100.483 16.4827 100.662 16.2907 100.896 16.152C101.136 16.008 101.411 15.936 101.72 15.936C102.2 15.936 102.576 16.0853 102.848 16.384C103.126 16.6827 103.264 17.128 103.264 17.72V20H102.424V17.808C102.424 17.04 102.11 16.656 101.48 16.656C101.166 16.656 100.904 16.768 100.696 16.992C100.494 17.216 100.392 17.536 100.392 17.952V20H99.5444ZM105.911 20.096C105.527 20.096 105.189 20.0053 104.895 19.824C104.602 19.6427 104.373 19.3947 104.207 19.08C104.042 18.7653 103.959 18.408 103.959 18.008C103.959 17.608 104.042 17.2533 104.207 16.944C104.373 16.6293 104.602 16.384 104.895 16.208C105.194 16.0267 105.535 15.936 105.919 15.936C106.234 15.936 106.509 15.9973 106.743 16.12C106.983 16.2427 107.17 16.416 107.303 16.64V14.24H108.151V20H107.391L107.303 19.384C107.175 19.5707 106.999 19.736 106.775 19.88C106.551 20.024 106.263 20.096 105.911 20.096ZM106.063 19.36C106.426 19.36 106.722 19.2347 106.951 18.984C107.186 18.7333 107.303 18.4107 107.303 18.016C107.303 17.616 107.186 17.2933 106.951 17.048C106.722 16.7973 106.426 16.672 106.063 16.672C105.701 16.672 105.402 16.7973 105.167 17.048C104.933 17.2933 104.815 17.616 104.815 18.016C104.815 18.2773 104.869 18.5093 104.975 18.712C105.082 18.9147 105.229 19.0747 105.415 19.192C105.607 19.304 105.823 19.36 106.063 19.36ZM110.916 20.096C110.527 20.096 110.18 20.0107 109.876 19.84C109.578 19.664 109.343 19.4213 109.172 19.112C109.002 18.8027 108.916 18.4427 108.916 18.032C108.916 17.616 108.999 17.2507 109.164 16.936C109.335 16.6213 109.57 16.376 109.868 16.2C110.172 16.024 110.524 15.936 110.924 15.936C111.314 15.936 111.652 16.024 111.94 16.2C112.228 16.3707 112.452 16.6 112.612 16.888C112.772 17.176 112.852 17.4933 112.852 17.84C112.852 17.8933 112.85 17.952 112.844 18.016C112.844 18.0747 112.842 18.1413 112.836 18.216H109.748C109.775 18.6 109.9 18.8933 110.124 19.096C110.354 19.2933 110.618 19.392 110.916 19.392C111.156 19.392 111.356 19.3387 111.516 19.232C111.682 19.12 111.804 18.9707 111.884 18.784H112.732C112.626 19.1573 112.412 19.4693 112.092 19.72C111.778 19.9707 111.386 20.096 110.916 20.096ZM110.916 16.632C110.634 16.632 110.383 16.7173 110.164 16.888C109.946 17.0533 109.812 17.304 109.764 17.64H112.004C111.988 17.3307 111.879 17.0853 111.676 16.904C111.474 16.7227 111.22 16.632 110.916 16.632ZM115.38 20.096C114.996 20.096 114.658 20.0053 114.364 19.824C114.071 19.6427 113.842 19.3947 113.676 19.08C113.511 18.7653 113.428 18.408 113.428 18.008C113.428 17.608 113.511 17.2533 113.676 16.944C113.842 16.6293 114.071 16.384 114.364 16.208C114.663 16.0267 115.004 15.936 115.388 15.936C115.703 15.936 115.978 15.9973 116.212 16.12C116.452 16.2427 116.639 16.416 116.772 16.64V14.24H117.62V20H116.86L116.772 19.384C116.644 19.5707 116.468 19.736 116.244 19.88C116.02 20.024 115.732 20.096 115.38 20.096ZM115.532 19.36C115.895 19.36 116.191 19.2347 116.42 18.984C116.655 18.7333 116.772 18.4107 116.772 18.016C116.772 17.616 116.655 17.2933 116.42 17.048C116.191 16.7973 115.895 16.672 115.532 16.672C115.17 16.672 114.871 16.7973 114.636 17.048C114.402 17.2933 114.284 17.616 114.284 18.016C114.284 18.2773 114.338 18.5093 114.444 18.712C114.551 18.9147 114.698 19.0747 114.884 19.192C115.076 19.304 115.292 19.36 115.532 19.36Z" fill="#7D589F"/>
<path d="M23.3529 25.8865C23.3117 25.8445 23.2735 25.8047 23.2384 25.7676C23.2735 25.7305 23.3117 25.6907 23.3529 25.6487C23.6157 25.3803 23.9962 25.0224 24.4652 24.6654C25.4149 23.9424 26.6686 23.2676 28.0116 23.2676C29.3547 23.2676 30.6083 23.9424 31.558 24.6654C32.027 25.0224 32.4075 25.3803 32.6704 25.6487C32.7115 25.6907 32.7497 25.7305 32.7848 25.7676C32.7497 25.8047 32.7115 25.8445 32.6704 25.8865C32.4075 26.1548 32.027 26.5127 31.558 26.8698C30.6083 27.5928 29.3547 28.2676 28.0116 28.2676C26.6686 28.2676 25.4149 27.5928 24.4652 26.8698C23.9962 26.5127 23.6157 26.1548 23.3529 25.8865Z" stroke="#676A7B"/>
<path d="M21.3115 23.3545L23.0703 25.6117" stroke="#676A7B"/>
<path d="M24.2422 21.7676L25.3245 24.3792" stroke="#676A7B"/>
<path d="M34.6882 23.3545L32.9295 25.6117" stroke="#676A7B"/>
<path d="M32.0244 21.7676L30.9421 24.3792" stroke="#676A7B"/>
<path d="M28.2358 21L28.2358 23.3034" stroke="#676A7B"/>
<ellipse cx="28.593" cy="25.7676" rx="1.675" ry="2" fill="#676A7B"/>
</svg>
