<svg width="108" height="32" viewBox="0 0 108 32" fill="none" xmlns="http://www.w3.org/2000/svg">
<ellipse cx="15.5" cy="15.5059" rx="15.5" ry="15.5059" fill="#F0A200"/>
<path d="M8.612 18V11.7H9.764V14.247L12.095 11.7H13.517L11.195 14.202L13.58 18H12.167L10.367 15.084L9.764 15.741V18H8.612ZM14.1888 18V11.7H15.5568L17.5638 15.696L19.5438 11.7H20.9118V18H19.7598V13.653L18.0048 17.1H17.0958L15.3408 13.653V18H14.1888Z" fill="#1B2559"/>
<path d="M66.415 28.9998C67.7849 28.9998 68.9055 27.9598 68.9055 26.6887H63.9244C63.9244 27.9598 65.045 28.9998 66.415 28.9998ZM74.5094 22.0664V15.7109C74.5094 12.1864 71.8321 9.18212 68.2829 8.43084V7.622C68.2829 6.63967 67.4736 5.88867 66.415 5.88867C65.3564 5.88867 64.547 6.63967 64.547 7.622V8.43084C60.9978 9.18212 58.3206 12.1864 58.3206 15.7109V22.0664L55.8301 24.3776V25.5331H76.9999V24.3776L74.5094 22.0664Z" fill="#7D589F"/>
<path d="M73.5094 22.0664V22.5027L73.8292 22.7995L75.6974 24.5331H57.1326L59.0008 22.7995L59.3206 22.5027V22.0664V15.7109C59.3206 12.7135 61.6115 10.0744 64.7541 9.40916L65.547 9.24132V8.43084V7.622C65.547 7.26107 65.8369 6.88867 66.415 6.88867C66.9931 6.88867 67.2829 7.26107 67.2829 7.622V8.43084V9.24132L68.0758 9.40916C71.2184 10.0744 73.5094 12.7135 73.5094 15.7109V22.0664ZM67.3746 27.6887C67.124 27.8785 66.7959 27.9998 66.415 27.9998C66.034 27.9998 65.706 27.8785 65.4553 27.6887H67.3746Z" stroke="#7D589F" stroke-opacity="0.9" stroke-width="2"/>
<path d="M80.568 19V13.4H82.496C82.9387 13.4 83.3013 13.4747 83.584 13.624C83.872 13.7733 84.0853 13.976 84.224 14.232C84.3627 14.4827 84.432 14.7627 84.432 15.072C84.432 15.4187 84.3387 15.7333 84.152 16.016C83.9707 16.2987 83.6853 16.5013 83.296 16.624L84.488 19H83.504L82.416 16.744H81.416V19H80.568ZM81.416 16.104H82.448C82.832 16.104 83.112 16.0107 83.288 15.824C83.4693 15.6373 83.56 15.3947 83.56 15.096C83.56 14.7973 83.472 14.56 83.296 14.384C83.12 14.2027 82.8347 14.112 82.44 14.112H81.416V16.104ZM86.857 19.096C86.4677 19.096 86.121 19.0107 85.817 18.84C85.5183 18.664 85.2837 18.4213 85.113 18.112C84.9423 17.8027 84.857 17.4427 84.857 17.032C84.857 16.616 84.9397 16.2507 85.105 15.936C85.2757 15.6213 85.5103 15.376 85.809 15.2C86.113 15.024 86.465 14.936 86.865 14.936C87.2543 14.936 87.593 15.024 87.881 15.2C88.169 15.3707 88.393 15.6 88.553 15.888C88.713 16.176 88.793 16.4933 88.793 16.84C88.793 16.8933 88.7903 16.952 88.785 17.016C88.785 17.0747 88.7823 17.1413 88.777 17.216H85.689C85.7157 17.6 85.841 17.8933 86.065 18.096C86.2943 18.2933 86.5583 18.392 86.857 18.392C87.097 18.392 87.297 18.3387 87.457 18.232C87.6223 18.12 87.745 17.9707 87.825 17.784H88.673C88.5663 18.1573 88.353 18.4693 88.033 18.72C87.7183 18.9707 87.3263 19.096 86.857 19.096ZM86.857 15.632C86.5743 15.632 86.3237 15.7173 86.105 15.888C85.8863 16.0533 85.753 16.304 85.705 16.64H87.945C87.929 16.3307 87.8197 16.0853 87.617 15.904C87.4143 15.7227 87.161 15.632 86.857 15.632ZM89.5129 19V15.032H90.2649L90.3369 15.592C90.4649 15.3893 90.6329 15.2293 90.8409 15.112C91.0542 14.9947 91.2995 14.936 91.5769 14.936C92.2062 14.936 92.6435 15.184 92.8889 15.68C93.0329 15.4507 93.2249 15.2693 93.4649 15.136C93.7102 15.0027 93.9742 14.936 94.2569 14.936C94.7529 14.936 95.1422 15.0853 95.4249 15.384C95.7075 15.6827 95.8489 16.128 95.8489 16.72V19H95.0009V16.808C95.0009 16.04 94.7075 15.656 94.1209 15.656C93.8222 15.656 93.5769 15.768 93.3849 15.992C93.1982 16.216 93.1049 16.536 93.1049 16.952V19H92.2569V16.808C92.2569 16.04 91.9609 15.656 91.3689 15.656C91.0755 15.656 90.8329 15.768 90.6409 15.992C90.4542 16.216 90.3609 16.536 90.3609 16.952V19H89.5129ZM97.161 14.28C97.001 14.28 96.8677 14.232 96.761 14.136C96.6597 14.0347 96.609 13.9093 96.609 13.76C96.609 13.6107 96.6597 13.488 96.761 13.392C96.8677 13.2907 97.001 13.24 97.161 13.24C97.321 13.24 97.4517 13.2907 97.553 13.392C97.6597 13.488 97.713 13.6107 97.713 13.76C97.713 13.9093 97.6597 14.0347 97.553 14.136C97.4517 14.232 97.321 14.28 97.161 14.28ZM96.737 19V15.032H97.585V19H96.737ZM98.5444 19V15.032H99.2964L99.3604 15.728C99.4831 15.4827 99.6618 15.2907 99.8964 15.152C100.136 15.008 100.411 14.936 100.72 14.936C101.2 14.936 101.576 15.0853 101.848 15.384C102.126 15.6827 102.264 16.128 102.264 16.72V19H101.424V16.808C101.424 16.04 101.11 15.656 100.48 15.656C100.166 15.656 99.9044 15.768 99.6964 15.992C99.4938 16.216 99.3924 16.536 99.3924 16.952V19H98.5444ZM104.911 19.096C104.527 19.096 104.189 19.0053 103.895 18.824C103.602 18.6427 103.373 18.3947 103.207 18.08C103.042 17.7653 102.959 17.408 102.959 17.008C102.959 16.608 103.042 16.2533 103.207 15.944C103.373 15.6293 103.602 15.384 103.895 15.208C104.194 15.0267 104.535 14.936 104.919 14.936C105.234 14.936 105.509 14.9973 105.743 15.12C105.983 15.2427 106.17 15.416 106.303 15.64V13.24H107.151V19H106.391L106.303 18.384C106.175 18.5707 105.999 18.736 105.775 18.88C105.551 19.024 105.263 19.096 104.911 19.096ZM105.063 18.36C105.426 18.36 105.722 18.2347 105.951 17.984C106.186 17.7333 106.303 17.4107 106.303 17.016C106.303 16.616 106.186 16.2933 105.951 16.048C105.722 15.7973 105.426 15.672 105.063 15.672C104.701 15.672 104.402 15.7973 104.167 16.048C103.933 16.2933 103.815 16.616 103.815 17.016C103.815 17.2773 103.869 17.5093 103.975 17.712C104.082 17.9147 104.229 18.0747 104.415 18.192C104.607 18.304 104.823 18.36 105.063 18.36Z" fill="#7D589F"/>
<path d="M24.3529 24.8865C24.3117 24.8445 24.2735 24.8047 24.2384 24.7676C24.2735 24.7305 24.3117 24.6907 24.3529 24.6487C24.6157 24.3803 24.9962 24.0224 25.4652 23.6654C26.4149 22.9424 27.6686 22.2676 29.0116 22.2676C30.3547 22.2676 31.6083 22.9424 32.558 23.6654C33.027 24.0224 33.4075 24.3803 33.6704 24.6487C33.7115 24.6907 33.7497 24.7305 33.7848 24.7676C33.7497 24.8047 33.7115 24.8445 33.6704 24.8865C33.4075 25.1548 33.027 25.5127 32.558 25.8698C31.6083 26.5928 30.3547 27.2676 29.0116 27.2676C27.6686 27.2676 26.4149 26.5928 25.4652 25.8698C24.9962 25.5127 24.6157 25.1548 24.3529 24.8865Z" stroke="#676A7B"/>
<path d="M22.3115 22.3545L24.0703 24.6117" stroke="#676A7B"/>
<path d="M25.2422 20.7676L26.3245 23.3792" stroke="#676A7B"/>
<path d="M35.6882 22.3545L33.9295 24.6117" stroke="#676A7B"/>
<path d="M33.0244 20.7676L31.9421 23.3792" stroke="#676A7B"/>
<path d="M29.2358 20L29.2358 22.3034" stroke="#676A7B"/>
<ellipse cx="29.593" cy="24.7676" rx="1.675" ry="2" fill="#676A7B"/>
</svg>
