<svg width="64" height="21" viewBox="0 0 64 21" fill="none" xmlns="http://www.w3.org/2000/svg">
<rect width="64" height="21" rx="10.5" fill="#68AAF8"/>
<path d="M24.035 14V7H25.095V13.16H28.275V14H24.035ZM31.281 14.12C30.8077 14.12 30.381 14.0133 30.001 13.8C29.6277 13.58 29.331 13.2767 29.111 12.89C28.891 12.4967 28.781 12.04 28.781 11.52C28.781 11 28.891 10.5467 29.111 10.16C29.3377 9.76667 29.641 9.46333 30.021 9.25C30.401 9.03 30.8243 8.92 31.291 8.92C31.7643 8.92 32.1877 9.03 32.561 9.25C32.941 9.46333 33.241 9.76667 33.461 10.16C33.6877 10.5467 33.801 11 33.801 11.52C33.801 12.04 33.6877 12.4967 33.461 12.89C33.241 13.2767 32.941 13.58 32.561 13.8C32.181 14.0133 31.7543 14.12 31.281 14.12ZM31.281 13.21C31.5343 13.21 31.7677 13.1467 31.981 13.02C32.201 12.8933 32.3777 12.7067 32.511 12.46C32.6443 12.2067 32.711 11.8933 32.711 11.52C32.711 11.1467 32.6443 10.8367 32.511 10.59C32.3843 10.3367 32.211 10.1467 31.991 10.02C31.7777 9.89333 31.5443 9.83 31.291 9.83C31.0377 9.83 30.801 9.89333 30.581 10.02C30.3677 10.1467 30.1943 10.3367 30.061 10.59C29.9277 10.8367 29.861 11.1467 29.861 11.52C29.861 11.8933 29.9277 12.2067 30.061 12.46C30.1943 12.7067 30.3677 12.8933 30.581 13.02C30.7943 13.1467 31.0277 13.21 31.281 13.21ZM35.5518 14L34.0918 9.04H35.1518L36.1118 12.78L37.1918 9.04H38.3718L39.4518 12.78L40.4118 9.04H41.4718L40.0118 14H38.9218L37.7818 10.1L36.6418 14H35.5518Z" fill="white"/>
</svg>
