<svg width="64" height="21" viewBox="0 0 64 21" fill="none" xmlns="http://www.w3.org/2000/svg">
<rect width="64" height="21" rx="10.5" fill="#F9A144"/>
<path d="M13.9717 14V7H15.2217L17.5917 11.66L19.9517 7H21.2017V14H20.1417V8.83L18.0017 13H17.1817L15.0317 8.84V14H13.9717ZM24.7041 14.12C24.2174 14.12 23.7841 14.0133 23.4041 13.8C23.0307 13.58 22.7374 13.2767 22.5241 12.89C22.3107 12.5033 22.2041 12.0533 22.2041 11.54C22.2041 11.02 22.3074 10.5633 22.5141 10.17C22.7274 9.77667 23.0207 9.47 23.3941 9.25C23.7741 9.03 24.2141 8.92 24.7141 8.92C25.2007 8.92 25.6241 9.03 25.9841 9.25C26.3441 9.46333 26.6241 9.75 26.8241 10.11C27.0241 10.47 27.1241 10.8667 27.1241 11.3C27.1241 11.3667 27.1207 11.44 27.1141 11.52C27.1141 11.5933 27.1107 11.6767 27.1041 11.77H23.2441C23.2774 12.25 23.4341 12.6167 23.7141 12.87C24.0007 13.1167 24.3307 13.24 24.7041 13.24C25.0041 13.24 25.2541 13.1733 25.4541 13.04C25.6607 12.9 25.8141 12.7133 25.9141 12.48H26.9741C26.8407 12.9467 26.5741 13.3367 26.1741 13.65C25.7807 13.9633 25.2907 14.12 24.7041 14.12ZM24.7041 9.79C24.3507 9.79 24.0374 9.89667 23.7641 10.11C23.4907 10.3167 23.3241 10.63 23.2641 11.05H26.0641C26.0441 10.6633 25.9074 10.3567 25.6541 10.13C25.4007 9.90333 25.0841 9.79 24.7041 9.79ZM30.2839 14.12C29.8039 14.12 29.3806 14.0067 29.0139 13.78C28.6472 13.5533 28.3606 13.2433 28.1539 12.85C27.9472 12.4567 27.8439 12.01 27.8439 11.51C27.8439 11.01 27.9472 10.5667 28.1539 10.18C28.3606 9.78667 28.6472 9.48 29.0139 9.26C29.3872 9.03333 29.8139 8.92 30.2939 8.92C30.6872 8.92 31.0306 8.99667 31.3239 9.15C31.6239 9.30333 31.8572 9.52 32.0239 9.8V6.8H33.0839V14H32.1339L32.0239 13.23C31.8639 13.4633 31.6439 13.67 31.3639 13.85C31.0839 14.03 30.7239 14.12 30.2839 14.12ZM30.4739 13.2C30.9272 13.2 31.2972 13.0433 31.5839 12.73C31.8772 12.4167 32.0239 12.0133 32.0239 11.52C32.0239 11.02 31.8772 10.6167 31.5839 10.31C31.2972 9.99667 30.9272 9.84 30.4739 9.84C30.0206 9.84 29.6472 9.99667 29.3539 10.31C29.0606 10.6167 28.9139 11.02 28.9139 11.52C28.9139 11.8467 28.9806 12.1367 29.1139 12.39C29.2472 12.6433 29.4306 12.8433 29.6639 12.99C29.9039 13.13 30.1739 13.2 30.4739 13.2ZM34.8204 8.1C34.6204 8.1 34.4537 8.04 34.3204 7.92C34.1937 7.79333 34.1304 7.63667 34.1304 7.45C34.1304 7.26333 34.1937 7.11 34.3204 6.99C34.4537 6.86333 34.6204 6.8 34.8204 6.8C35.0204 6.8 35.1837 6.86333 35.3104 6.99C35.4437 7.11 35.5104 7.26333 35.5104 7.45C35.5104 7.63667 35.4437 7.79333 35.3104 7.92C35.1837 8.04 35.0204 8.1 34.8204 8.1ZM34.2904 14V9.04H35.3504V14H34.2904ZM38.3797 14.12C37.7797 14.12 37.3064 13.9333 36.9597 13.56C36.6197 13.1867 36.4497 12.63 36.4497 11.89V9.04H37.5097V11.78C37.5097 12.74 37.903 13.22 38.6897 13.22C39.083 13.22 39.4064 13.08 39.6597 12.8C39.913 12.52 40.0397 12.12 40.0397 11.6V9.04H41.0997V14H40.1597L40.0797 13.13C39.9264 13.4367 39.6997 13.68 39.3997 13.86C39.1064 14.0333 38.7664 14.12 38.3797 14.12ZM42.2481 14V9.04H43.1881L43.2781 9.74C43.4381 9.48667 43.6481 9.28667 43.9081 9.14C44.1748 8.99333 44.4815 8.92 44.8281 8.92C45.6148 8.92 46.1615 9.23 46.4681 9.85C46.6481 9.56333 46.8881 9.33667 47.1881 9.17C47.4948 9.00333 47.8248 8.92 48.1781 8.92C48.7981 8.92 49.2848 9.10667 49.6381 9.48C49.9915 9.85333 50.1681 10.41 50.1681 11.15V14H49.1081V11.26C49.1081 10.3 48.7415 9.82 48.0081 9.82C47.6348 9.82 47.3281 9.96 47.0881 10.24C46.8548 10.52 46.7381 10.92 46.7381 11.44V14H45.6781V11.26C45.6781 10.3 45.3081 9.82 44.5681 9.82C44.2015 9.82 43.8981 9.96 43.6581 10.24C43.4248 10.52 43.3081 10.92 43.3081 11.44V14H42.2481Z" fill="white"/>
</svg>
