<svg width="91" height="27" viewBox="0 0 91 27" fill="none" xmlns="http://www.w3.org/2000/svg">
<rect width="91" height="27" rx="7" fill="#5570F1" fill-opacity="0.17"/>
<path d="M32.4305 19L30.3505 15.386H29.2195V19H27.7375V9.965H30.8575C31.5509 9.965 32.1359 10.0863 32.6125 10.329C33.0979 10.5717 33.4575 10.8967 33.6915 11.304C33.9342 11.7113 34.0555 12.1663 34.0555 12.669C34.0555 13.2583 33.8822 13.7957 33.5355 14.281C33.1975 14.7577 32.6732 15.0827 31.9625 15.256L34.1985 19H32.4305ZM29.2195 14.203H30.8575C31.4122 14.203 31.8282 14.0643 32.1055 13.787C32.3915 13.5097 32.5345 13.137 32.5345 12.669C32.5345 12.201 32.3959 11.837 32.1185 11.577C31.8412 11.3083 31.4209 11.174 30.8575 11.174H29.2195V14.203ZM42.2564 15.243C42.2564 15.5117 42.2391 15.7543 42.2044 15.971H36.7314C36.7747 16.543 36.9871 17.0023 37.3684 17.349C37.7497 17.6957 38.2177 17.869 38.7724 17.869C39.5697 17.869 40.1331 17.5353 40.4624 16.868H42.0614C41.8447 17.5267 41.4504 18.0683 40.8784 18.493C40.3151 18.909 39.6131 19.117 38.7724 19.117C38.0877 19.117 37.4724 18.9653 36.9264 18.662C36.3891 18.35 35.9644 17.9167 35.6524 17.362C35.3491 16.7987 35.1974 16.1487 35.1974 15.412C35.1974 14.6753 35.3447 14.0297 35.6394 13.475C35.9427 12.9117 36.3631 12.4783 36.9004 12.175C37.4464 11.8717 38.0704 11.72 38.7724 11.72C39.4484 11.72 40.0507 11.8673 40.5794 12.162C41.1081 12.4567 41.5197 12.8727 41.8144 13.41C42.1091 13.9387 42.2564 14.5497 42.2564 15.243ZM40.7094 14.775C40.7007 14.229 40.5057 13.7913 40.1244 13.462C39.7431 13.1327 39.2707 12.968 38.7074 12.968C38.1961 12.968 37.7584 13.1327 37.3944 13.462C37.0304 13.7827 36.8137 14.2203 36.7444 14.775H40.7094ZM42.9608 15.386C42.9608 14.6667 43.1082 14.0297 43.4028 13.475C43.7062 12.9203 44.1135 12.4913 44.6248 12.188C45.1448 11.876 45.7212 11.72 46.3538 11.72C46.9085 11.72 47.3982 11.8327 47.8228 12.058C48.2562 12.2833 48.5898 12.5563 48.8238 12.877V11.837H50.3188V22.406H48.8238V17.96C48.5898 18.2807 48.2518 18.5537 47.8098 18.779C47.3678 19.0043 46.8652 19.117 46.3018 19.117C45.6865 19.117 45.1232 18.961 44.6118 18.649C44.1092 18.3283 43.7062 17.8863 43.4028 17.323C43.1082 16.751 42.9608 16.1053 42.9608 15.386ZM48.8238 15.412C48.8238 14.918 48.7198 14.489 48.5118 14.125C48.3125 13.761 48.0482 13.4837 47.7188 13.293C47.3895 13.1023 47.0342 13.007 46.6528 13.007C46.2715 13.007 45.9162 13.1023 45.5868 13.293C45.2575 13.475 44.9888 13.748 44.7808 14.112C44.5815 14.4673 44.4818 14.892 44.4818 15.386C44.4818 15.88 44.5815 16.3133 44.7808 16.686C44.9888 17.0587 45.2575 17.3447 45.5868 17.544C45.9248 17.7347 46.2802 17.83 46.6528 17.83C47.0342 17.83 47.3895 17.7347 47.7188 17.544C48.0482 17.3533 48.3125 17.076 48.5118 16.712C48.7198 16.3393 48.8238 15.906 48.8238 15.412ZM58.4924 11.837V19H57.0104V18.155C56.7764 18.4497 56.4687 18.6837 56.0874 18.857C55.7147 19.0217 55.3161 19.104 54.8914 19.104C54.3281 19.104 53.8211 18.987 53.3704 18.753C52.9284 18.519 52.5774 18.1723 52.3174 17.713C52.0661 17.2537 51.9404 16.699 51.9404 16.049V11.837H53.4094V15.828C53.4094 16.4693 53.5697 16.9633 53.8904 17.31C54.2111 17.648 54.6487 17.817 55.2034 17.817C55.7581 17.817 56.1957 17.648 56.5164 17.31C56.8457 16.9633 57.0104 16.4693 57.0104 15.828V11.837H58.4924ZM66.7528 15.243C66.7528 15.5117 66.7354 15.7543 66.7008 15.971H61.2278C61.2711 16.543 61.4834 17.0023 61.8648 17.349C62.2461 17.6957 62.7141 17.869 63.2688 17.869C64.0661 17.869 64.6294 17.5353 64.9588 16.868H66.5578C66.3411 17.5267 65.9468 18.0683 65.3748 18.493C64.8114 18.909 64.1094 19.117 63.2688 19.117C62.5841 19.117 61.9688 18.9653 61.4228 18.662C60.8854 18.35 60.4608 17.9167 60.1488 17.362C59.8454 16.7987 59.6938 16.1487 59.6938 15.412C59.6938 14.6753 59.8411 14.0297 60.1358 13.475C60.4391 12.9117 60.8594 12.4783 61.3968 12.175C61.9428 11.8717 62.5668 11.72 63.2688 11.72C63.9448 11.72 64.5471 11.8673 65.0758 12.162C65.6044 12.4567 66.0161 12.8727 66.3108 13.41C66.6054 13.9387 66.7528 14.5497 66.7528 15.243ZM65.2058 14.775C65.1971 14.229 65.0021 13.7913 64.6208 13.462C64.2394 13.1327 63.7671 12.968 63.2038 12.968C62.6924 12.968 62.2548 13.1327 61.8908 13.462C61.5268 13.7827 61.3101 14.2203 61.2408 14.775H65.2058ZM70.5512 19.117C69.9879 19.117 69.4809 19.0173 69.0302 18.818C68.5882 18.61 68.2372 18.3327 67.9772 17.986C67.7172 17.6307 67.5785 17.2363 67.5612 16.803H69.0952C69.1212 17.1063 69.2642 17.362 69.5242 17.57C69.7929 17.7693 70.1265 17.869 70.5252 17.869C70.9412 17.869 71.2619 17.791 71.4872 17.635C71.7212 17.4703 71.8382 17.2623 71.8382 17.011C71.8382 16.7423 71.7082 16.543 71.4482 16.413C71.1969 16.283 70.7939 16.14 70.2392 15.984C69.7019 15.8367 69.2642 15.6937 68.9262 15.555C68.5882 15.4163 68.2935 15.204 68.0422 14.918C67.7995 14.632 67.6782 14.255 67.6782 13.787C67.6782 13.4057 67.7909 13.059 68.0162 12.747C68.2415 12.4263 68.5622 12.175 68.9782 11.993C69.4029 11.811 69.8882 11.72 70.4342 11.72C71.2489 11.72 71.9032 11.928 72.3972 12.344C72.8999 12.7513 73.1685 13.3103 73.2032 14.021H71.7212C71.6952 13.7003 71.5652 13.4447 71.3312 13.254C71.0972 13.0633 70.7809 12.968 70.3822 12.968C69.9922 12.968 69.6932 13.0417 69.4852 13.189C69.2772 13.3363 69.1732 13.5313 69.1732 13.774C69.1732 13.9647 69.2425 14.125 69.3812 14.255C69.5199 14.385 69.6889 14.489 69.8882 14.567C70.0875 14.6363 70.3822 14.7273 70.7722 14.84C71.2922 14.9787 71.7169 15.1217 72.0462 15.269C72.3842 15.4077 72.6745 15.6157 72.9172 15.893C73.1599 16.1703 73.2855 16.5387 73.2942 16.998C73.2942 17.4053 73.1815 17.7693 72.9562 18.09C72.7309 18.4107 72.4102 18.662 71.9942 18.844C71.5869 19.026 71.1059 19.117 70.5512 19.117ZM76.3645 13.046V17.011C76.3645 17.2797 76.4252 17.4747 76.5465 17.596C76.6765 17.7087 76.8932 17.765 77.1965 17.765H78.1065V19H76.9365C76.2692 19 75.7579 18.844 75.4025 18.532C75.0472 18.22 74.8695 17.713 74.8695 17.011V13.046H74.0245V11.837H74.8695V10.056H76.3645V11.837H78.1065V13.046H76.3645Z" fill="#A3AED0"/>
<path d="M11 14L19 14" stroke="#A3AED0" stroke-width="2" stroke-linecap="square"/>
<path d="M15.0166 18L15.0166 10" stroke="#A3AED0" stroke-width="2" stroke-linecap="square"/>
</svg>
