<svg width="24" height="25" viewBox="0 0 24 25" fill="none" xmlns="http://www.w3.org/2000/svg">
<path d="M13 3.5H9.8C8.11984 3.5 7.27976 3.5 6.63803 3.82698C6.07354 4.1146 5.6146 4.57354 5.32698 5.13803C5 5.77976 5 6.61984 5 8.3V16.7C5 18.3802 5 19.2202 5.32698 19.862C5.6146 20.4265 6.07354 20.8854 6.63803 21.173C7.27976 21.5 8.11984 21.5 9.8 21.5H14.2C15.8802 21.5 16.7202 21.5 17.362 21.173C17.9265 20.8854 18.3854 20.4265 18.673 19.862C19 19.2202 19 18.3802 19 16.7V9.5M13 3.5L19 9.5M13 3.5V6.3C13 7.4201 13 7.98016 13.218 8.40798C13.4097 8.78431 13.7157 9.09027 14.092 9.28201C14.5198 9.5 15.0799 9.5 16.2 9.5H19" stroke="#131A29" stroke-width="2" stroke-linecap="round" stroke-linejoin="round"/>
</svg>
