<svg width="24" height="25" viewBox="0 0 24 25" fill="none" xmlns="http://www.w3.org/2000/svg">
<path d="M17 9.5C17 10.0523 17.4477 10.5 18 10.5C18.5523 10.5 19 10.0523 19 9.5H17ZM19 3.5C19 2.94772 18.5523 2.5 18 2.5C17.4477 2.5 17 2.94772 17 3.5H19ZM21 7.5C21.5523 7.5 22 7.05228 22 6.5C22 5.94772 21.5523 5.5 21 5.5V7.5ZM15 5.5C14.4477 5.5 14 5.94772 14 6.5C14 7.05228 14.4477 7.5 15 7.5V5.5ZM11 5.5C11.5523 5.5 12 5.05228 12 4.5C12 3.94772 11.5523 3.5 11 3.5V5.5ZM21 13.5C21 12.9477 20.5523 12.5 20 12.5C19.4477 12.5 19 12.9477 19 13.5H21ZM5.63803 20.173L6.09202 19.282H6.09202L5.63803 20.173ZM4.32698 18.862L3.43597 19.316H3.43597L4.32698 18.862ZM18.362 20.173L17.908 19.282H17.908L18.362 20.173ZM19.673 18.862L18.782 18.408V18.408L19.673 18.862ZM4.32698 6.13803L5.21799 6.59202L4.32698 6.13803ZM5.63803 4.82698L6.09202 5.71799L5.63803 4.82698ZM12.5967 14.7834L13.3008 14.0733H13.3008L12.5967 14.7834ZM14.6061 16.099L15.3102 16.809H15.3102L14.6061 16.099ZM17.2796 21.011C17.6626 21.4088 18.2957 21.4209 18.6936 21.0378C19.0914 20.6548 19.1034 20.0217 18.7204 19.6239L17.2796 21.011ZM19.1643 16.1514L18.444 16.8451L18.4481 16.8493L19.1643 16.1514ZM19.2751 17.6979C19.6605 18.0935 20.2936 18.1016 20.6891 17.7162C21.0847 17.3307 21.0929 16.6976 20.7074 16.3021L19.2751 17.6979ZM3.54372 18.0202C3.15852 18.416 3.1671 19.0491 3.56288 19.4343C3.95866 19.8195 4.59177 19.8109 4.97696 19.4152L3.54372 18.0202ZM8.04152 14.8326L8.75814 15.5301L8.76086 15.5273L8.04152 14.8326ZM16.2773 14.7543L15.9764 13.8006H15.9764L16.2773 14.7543ZM17.5244 14.7687L17.2017 15.7152L17.2017 15.7152L17.5244 14.7687ZM10.9274 13.4401L11.2286 12.4866L11.2286 12.4866L10.9274 13.4401ZM9.68132 13.4536L9.35952 12.5068L9.68132 13.4536ZM19 9.5V3.5H17V9.5H19ZM21 5.5H15V7.5H21V5.5ZM15.2 19.5H8.8V21.5H15.2V19.5ZM5 15.7V9.3H3V15.7H5ZM8.8 5.5H11V3.5H8.8V5.5ZM19 13.5V15.7H21V13.5H19ZM8.8 19.5C7.94342 19.5 7.36113 19.4992 6.91104 19.4624C6.47262 19.4266 6.24842 19.3617 6.09202 19.282L5.18404 21.064C5.66937 21.3113 6.18608 21.4099 6.74817 21.4558C7.2986 21.5008 7.97642 21.5 8.8 21.5V19.5ZM3 15.7C3 16.5236 2.99922 17.2014 3.04419 17.7518C3.09012 18.3139 3.18868 18.8306 3.43597 19.316L5.21799 18.408C5.1383 18.2516 5.07337 18.0274 5.03755 17.589C5.00078 17.1389 5 16.5566 5 15.7H3ZM6.09202 19.282C5.7157 19.0903 5.40973 18.7843 5.21799 18.408L3.43597 19.316C3.81947 20.0686 4.43139 20.6805 5.18404 21.064L6.09202 19.282ZM15.2 21.5C16.0236 21.5 16.7014 21.5008 17.2518 21.4558C17.8139 21.4099 18.3306 21.3113 18.816 21.064L17.908 19.282C17.7516 19.3617 17.5274 19.4266 17.089 19.4624C16.6389 19.4992 16.0566 19.5 15.2 19.5V21.5ZM19 15.7C19 16.5566 18.9992 17.1389 18.9624 17.589C18.9266 18.0274 18.8617 18.2516 18.782 18.408L20.564 19.316C20.8113 18.8306 20.9099 18.3139 20.9558 17.7518C21.0008 17.2014 21 16.5236 21 15.7H19ZM18.816 21.064C19.5686 20.6805 20.1805 20.0686 20.564 19.316L18.782 18.408C18.5903 18.7843 18.2843 19.0903 17.908 19.282L18.816 21.064ZM5 9.3C5 8.44342 5.00078 7.86113 5.03755 7.41104C5.07337 6.97262 5.1383 6.74842 5.21799 6.59202L3.43597 5.68404C3.18868 6.16937 3.09012 6.68608 3.04419 7.24817C2.99922 7.7986 3 8.47642 3 9.3H5ZM8.8 3.5C7.97642 3.5 7.2986 3.49922 6.74817 3.54419C6.18608 3.59012 5.66937 3.68868 5.18404 3.93597L6.09202 5.71799C6.24842 5.6383 6.47262 5.57337 6.91104 5.53755C7.36113 5.50078 7.94342 5.5 8.8 5.5V3.5ZM5.21799 6.59202C5.40973 6.21569 5.71569 5.90973 6.09202 5.71799L5.18404 3.93597C4.43139 4.31947 3.81947 4.93139 3.43597 5.68404L5.21799 6.59202ZM11.8925 15.4934L13.5606 17.1476L14.9688 15.7274L13.3008 14.0733L11.8925 15.4934ZM14.9688 17.1476L15.3102 16.809L13.9019 15.3889L13.5606 15.7274L14.9688 17.1476ZM13.5443 17.1311L17.2796 21.011L18.7204 19.6239L14.9851 15.7439L13.5443 17.1311ZM18.4481 16.8493L19.2751 17.6979L20.7074 16.3021L19.8804 15.4535L18.4481 16.8493ZM4.97696 19.4152L8.75814 15.5301L7.32489 14.1352L3.54372 18.0202L4.97696 19.4152ZM15.3102 16.809C15.725 16.3977 15.9936 16.1324 16.2141 15.947C16.4258 15.769 16.5251 15.7247 16.5781 15.708L15.9764 13.8006C15.5672 13.9298 15.2338 14.1582 14.9269 14.4163C14.6289 14.6669 14.2931 15.001 13.9019 15.3889L15.3102 16.809ZM19.8845 15.4577C19.5024 15.0609 19.1744 14.7192 18.8822 14.4618C18.5813 14.1967 18.2533 13.9606 17.8471 13.8222L17.2017 15.7152C17.2544 15.7331 17.3526 15.7797 17.5601 15.9625C17.7763 16.1529 18.0388 16.4243 18.444 16.8451L19.8845 15.4577ZM16.5781 15.708C16.7815 15.6439 16.9999 15.6464 17.2017 15.7152L17.8471 13.8222C17.2418 13.6158 16.5864 13.6082 15.9764 13.8006L16.5781 15.708ZM13.3008 14.0733C12.9101 13.6859 12.5747 13.3522 12.277 13.1018C11.9705 12.844 11.6375 12.6157 11.2286 12.4866L10.6262 14.3937C10.6792 14.4104 10.7784 14.4547 10.9897 14.6324C11.21 14.8177 11.4783 15.0826 11.8925 15.4934L13.3008 14.0733ZM8.76086 15.5273C9.16613 15.1076 9.42862 14.8369 9.6448 14.647C9.85226 14.4647 9.95044 14.4183 10.0031 14.4004L9.35952 12.5068C8.95359 12.6448 8.6256 12.8802 8.32468 13.1446C8.03247 13.4013 7.70437 13.7422 7.32218 14.138L8.76086 15.5273ZM11.2286 12.4866C10.6193 12.2941 9.96451 12.3012 9.35952 12.5068L10.0031 14.4004C10.2048 14.3319 10.4231 14.3295 10.6262 14.3937L11.2286 12.4866Z" fill="#131A29"/>
</svg>
