<svg width="27" height="27" viewBox="0 0 27 27" fill="none" xmlns="http://www.w3.org/2000/svg">
<path d="M18 11.25L20.8989 9.51066C21.7912 8.97529 22.2373 8.7076 22.6044 8.74182C22.9245 8.77166 23.2165 8.937 23.4068 9.19612C23.625 9.49329 23.625 10.0136 23.625 11.0541V15.9459C23.625 16.9864 23.625 17.5067 23.4068 17.8039C23.2165 18.063 22.9245 18.2283 22.6044 18.2582C22.2373 18.2924 21.7912 18.0247 20.8989 17.4893L18 15.75M6.975 20.25H14.4C15.6601 20.25 16.2902 20.25 16.7715 20.0048C17.1948 19.7891 17.539 19.4448 17.7548 19.0215C18 18.5402 18 17.9101 18 16.65V9.45C18 8.50491 18 8.03237 17.8161 7.67139C17.6543 7.35387 17.3961 7.09571 17.0786 6.93393C16.7176 6.75 16.2451 6.75 15.3 6.75H6.075C5.12991 6.75 4.65737 6.75 4.29639 6.93393C3.97887 7.09571 3.72071 7.35387 3.55893 7.67139C3.375 8.03237 3.375 8.50491 3.375 9.45V16.65C3.375 17.9101 3.375 18.5402 3.62024 19.0215C3.83595 19.4448 4.18016 19.7891 4.60352 20.0048C5.08482 20.25 5.71488 20.25 6.975 20.25Z" stroke="#131A29" stroke-width="2" stroke-linecap="round" stroke-linejoin="round"/>
</svg>
